<svg width="170" height="72" viewBox="0 0 170 72" fill="none" xmlns="http://www.w3.org/2000/svg">
<path d="M125.926 31.0139C125.202 30.0669 124.274 29.3006 123.213 28.7734C122.153 28.2462 120.987 27.9721 119.806 27.9721C118.625 27.9721 117.46 28.2462 116.399 28.7734C115.338 29.3006 114.411 30.0669 113.687 31.0139C112.716 32.4187 112.207 34.0984 112.232 35.8139C112.207 37.5293 112.716 39.209 113.687 40.6138C114.411 41.5608 115.338 42.3271 116.399 42.8543C117.46 43.3815 118.625 43.6556 119.806 43.6556C120.987 43.6556 122.153 43.3815 123.213 42.8543C124.274 42.3271 125.202 41.5608 125.926 40.6138C126.896 39.2088 127.405 37.5292 127.38 35.8139C127.405 34.0985 126.896 32.4189 125.926 31.0139ZM123.501 37.6139C122.946 39.2999 121.627 40.6138 119.8 40.6558C117.973 40.6978 116.655 39.2999 116.105 37.6139C115.712 36.447 115.712 35.1807 116.105 34.0139C116.661 32.3279 117.979 31.0139 119.8 30.9719C121.621 30.9299 122.946 32.3279 123.501 34.0139C123.893 35.1789 123.893 36.4428 123.501 37.6079V37.6139ZM67.7762 43.2539C67.7762 43.3716 67.7301 43.4845 67.648 43.5678C67.566 43.6511 67.4547 43.6979 67.3386 43.6979H64.7963C64.6802 43.6979 64.5689 43.6511 64.4869 43.5678C64.4048 43.4845 64.3587 43.3716 64.3587 43.2539V22.0439C64.3587 21.9261 64.4048 21.8132 64.4869 21.7299C64.5689 21.6466 64.6802 21.5999 64.7963 21.5999H67.3386C67.4547 21.5999 67.566 21.6466 67.648 21.7299C67.7301 21.8132 67.7762 21.9261 67.7762 22.0439V43.2539ZM61.8045 43.2539C61.8045 43.3716 61.7584 43.4845 61.6764 43.5678C61.5943 43.6511 61.483 43.6979 61.367 43.6979H58.8246C58.7086 43.6979 58.5973 43.6511 58.5153 43.5678C58.4332 43.4845 58.3871 43.3716 58.3871 43.2539V22.0439C58.3871 21.9271 58.4324 21.8151 58.5132 21.732C58.5939 21.6489 58.7037 21.6014 58.8187 21.5999H61.3611C61.4771 21.5999 61.5884 21.6466 61.6705 21.7299C61.7525 21.8132 61.7986 21.9261 61.7986 22.0439V43.2539H61.8045ZM111.659 28.8539V30.6539C111.669 30.7315 111.66 30.8106 111.632 30.8838C111.605 30.957 111.559 31.0219 111.5 31.0727C111.441 31.1235 111.371 31.1584 111.295 31.1743C111.22 31.1903 111.141 31.1867 111.067 31.1639C108.194 30.5639 106.426 31.8599 106.426 34.5539V43.2539C106.426 43.3716 106.38 43.4845 106.298 43.5678C106.216 43.6511 106.105 43.6979 105.989 43.6979H103.446C103.33 43.6979 103.219 43.6511 103.137 43.5678C103.055 43.4845 103.009 43.3716 103.009 43.2539V34.3679C102.993 33.5273 103.152 32.6929 103.475 31.9188C103.798 31.1446 104.278 30.4479 104.883 29.8739C106.126 28.6407 107.798 27.9551 109.536 27.9659C110.131 27.9675 110.725 28.0237 111.31 28.1339C111.611 28.2359 111.659 28.4159 111.659 28.8779V28.8539ZM100.774 35.8079C100.806 34.0914 100.296 32.4094 99.3194 31.0079C98.5954 30.0609 97.6676 29.2946 96.607 28.7674C95.5463 28.2402 94.3809 27.9661 93.1999 27.9661C92.0189 27.9661 90.8535 28.2402 89.7929 28.7674C88.7322 29.2946 87.8045 30.0609 87.0805 31.0079C86.1196 32.4186 85.6049 34.0929 85.6049 35.8079C85.6049 37.5228 86.1196 39.1971 87.0805 40.6079C87.7928 41.5676 88.7182 42.3433 89.7815 42.8719C90.8448 43.4004 92.016 43.667 93.1999 43.6499C94.7506 43.655 96.2676 43.1913 97.5574 42.3179V44.2139C97.5574 46.7878 95.3402 47.2558 93.9212 47.3458C92.9448 47.3786 91.9675 47.3244 91.0005 47.1838C90.6102 47.1238 90.3383 47.1838 90.3383 47.6098V49.8899C90.3405 49.9411 90.3527 49.9914 90.3742 50.0378C90.3956 50.0842 90.4259 50.1259 90.4633 50.1605C90.5006 50.195 90.5443 50.2218 90.5918 50.2392C90.6394 50.2566 90.6898 50.2643 90.7403 50.2618C94.0336 50.5498 96.2508 50.4898 97.9181 49.5238C99.0862 48.8229 99.9532 47.7033 100.348 46.3859C100.643 45.3693 100.785 44.3134 100.768 43.2539V35.8079H100.774ZM93.1999 40.6439C91.373 40.6439 90.0545 39.2879 89.4987 37.6019C89.1054 36.435 89.1054 35.1687 89.4987 34.0019C90.0545 32.3159 91.373 30.9599 93.1999 30.9599C97.2854 30.9599 97.4214 35.1899 97.4214 35.8019C97.4214 36.4139 97.2854 40.6439 93.1999 40.6439ZM56.0576 34.2539C56.0576 32.2079 55.6082 30.6539 54.6386 29.5799C53.6689 28.5059 51.7178 27.9719 49.9086 27.9719C48.0925 27.9646 46.3072 28.4471 44.7351 29.3699C44.6859 29.3994 44.6453 29.4416 44.6172 29.4921C44.5892 29.5427 44.5748 29.5998 44.5755 29.6579L44.7115 31.9139C44.7236 31.984 44.7538 32.0497 44.7991 32.1041C44.8444 32.1585 44.9032 32.1998 44.9693 32.2236C45.0355 32.2474 45.1067 32.2529 45.1757 32.2396C45.2447 32.2263 45.3089 32.1946 45.3619 32.1479C47.5791 30.7619 50.2397 30.5039 51.5936 31.1999C51.9661 31.4177 52.2731 31.7345 52.4814 32.1161C52.6898 32.4978 52.7917 32.9298 52.7761 33.3659V33.6959H49.0808C47.4904 33.6959 42.6185 34.2959 42.6185 38.8379V38.8859C42.5806 39.577 42.7037 40.2675 42.978 40.9014C43.2523 41.5352 43.67 42.0945 44.1971 42.5338C45.3486 43.357 46.7404 43.7609 48.1467 43.6798H55.626C55.742 43.6798 55.8533 43.6331 55.9353 43.5498C56.0174 43.4665 56.0635 43.3536 56.0635 43.2359V34.2359L56.0576 34.2539ZM52.7761 40.9079H48.3595C47.7928 40.8914 47.2452 40.6963 46.7927 40.3498C46.5599 40.184 46.3708 39.9626 46.2419 39.7053C46.1131 39.448 46.0484 39.1625 46.0536 38.8739C46.0536 38.0639 46.5917 36.4439 49.2819 36.4439H52.7761V40.9079ZM77.1356 27.9719C72.6126 27.9719 70.6319 31.0499 69.9993 33.6539C69.8253 34.3562 69.7379 35.0777 69.7391 35.8019C69.7147 37.5172 70.2236 39.1968 71.1936 40.6018C71.9184 41.5478 72.8464 42.3135 73.9068 42.8406C74.9672 43.3678 76.1322 43.6425 77.313 43.6439C79.7549 43.7339 81.3867 43.3139 82.6343 42.5939C82.7559 42.5142 82.8499 42.3978 82.9029 42.2611C82.956 42.1244 82.9654 41.9743 82.9299 41.8319V39.8339C82.9299 39.4258 82.6875 39.2339 82.3386 39.4799C80.8784 40.4295 79.1455 40.8523 77.4194 40.6798C76.4365 40.6667 75.4922 40.2891 74.7647 39.6182C74.0372 38.9473 73.5766 38.0295 73.4699 37.0379H83.5211C83.6299 37.0379 83.7343 36.9944 83.8117 36.917C83.8892 36.8395 83.9335 36.7342 83.935 36.6239C84.1124 33.8339 83.3142 27.9719 77.1356 27.9719ZM73.5231 34.2779C73.5435 33.8185 73.6536 33.3679 73.8472 32.9522C74.0407 32.5365 74.3138 32.164 74.6505 31.8563C74.9872 31.5487 75.3808 31.3121 75.8085 31.1602C76.2362 31.0084 76.6893 30.9443 77.1416 30.9719C77.5744 30.945 78.0079 31.0124 78.4129 31.1696C78.818 31.3268 79.1852 31.5702 79.4898 31.8834C79.7945 32.1965 80.0296 32.5722 80.1794 32.9852C80.3291 33.3982 80.39 33.839 80.358 34.2779H73.5231Z" fill="#FF5A00"/>
</svg>
