<svg width="170" height="72" viewBox="0 0 170 72" fill="none" xmlns="http://www.w3.org/2000/svg">
<g clip-path="url(#clip0_580_1778)">
<path d="M33.0541 26.1111H40.7442C42.209 26.1111 43.3076 26.4858 44.1214 27.1103C45.0165 27.8597 45.5048 28.9423 45.5048 30.2746C45.5048 31.8151 44.8944 32.7727 43.6738 33.3555V33.4388C45.3013 33.9801 46.2372 35.4789 46.2372 37.2692C46.2372 38.9762 45.5862 40.3086 44.5282 41.1412C43.6331 41.8074 42.4938 42.0989 40.9477 42.0989H33.0541V26.1111ZM39.9711 32.3563C40.7849 32.3563 41.3952 31.8983 41.3952 30.9407C41.3952 30.0248 40.7849 29.5668 39.9304 29.5668H37.2857V32.3147H39.9711V32.3563ZM40.3373 38.5599C41.2732 38.5599 41.9649 37.977 41.9649 36.9361C41.9649 35.812 41.2325 35.3124 40.3373 35.3124H37.3264V38.6015H40.3373V38.5599ZM46.9289 26.1111H50.957V42.1405H46.9289V26.1111ZM51.7708 36.4365C51.7708 32.8143 54.0494 30.3995 57.5893 30.3995C61.1292 30.3995 63.367 32.8559 63.367 36.4365C63.367 40.0587 61.1292 42.4736 57.5893 42.4736C54.0494 42.4736 51.7708 40.0587 51.7708 36.4365ZM59.3389 36.4365C59.3389 34.438 58.7285 33.189 57.5079 33.189C56.2872 33.189 55.7176 34.438 55.7176 36.4365C55.7176 38.435 56.2872 39.7257 57.5079 39.7257C58.7285 39.684 59.3389 38.435 59.3389 36.4365ZM63.8146 36.4365C63.8146 32.8143 66.0932 30.3995 69.6331 30.3995C73.173 30.3995 75.3702 32.8143 75.3702 36.4365C75.3702 40.0587 73.1323 42.4736 69.5924 42.4736C66.0932 42.4736 63.8146 40.0587 63.8146 36.4365ZM71.3827 36.4365C71.3827 34.438 70.7724 33.189 69.5517 33.189C68.331 33.189 67.7614 34.438 67.7614 36.4365C67.7614 38.435 68.331 39.7257 69.5517 39.7257C70.7724 39.684 71.3827 38.435 71.3827 36.4365ZM76.1839 30.6909H79.9273V32.3979H80.0087C80.7411 31.0656 81.7583 30.3578 83.3858 30.3578C84.8099 30.3578 85.8678 31.0656 86.3968 32.3147H86.4781C87.3733 30.8158 88.5533 30.3578 89.9367 30.3578C92.5407 30.3578 93.6393 32.3147 93.6393 34.9377V42.0989H89.7332V35.6455C89.7332 34.4797 89.367 33.7303 88.3905 33.7303C87.414 33.7303 86.9257 34.6462 86.9257 35.8953V42.0989H83.0196V35.6455C83.0196 34.4797 82.6534 33.7303 81.6769 33.7303C80.7004 33.7303 80.2121 34.6462 80.2121 35.8953V42.0989H76.1839V30.6909ZM98.5626 40.6H98.5219V42.0989H94.7786V26.1111H98.6847V31.8567H98.7661C99.4985 30.8575 100.516 30.3162 101.94 30.3162C104.747 30.3162 106.375 32.8976 106.375 36.3532C106.375 40.2253 104.625 42.4736 101.696 42.4736C100.475 42.4736 99.2137 41.8907 98.5626 40.6ZM102.347 36.3116C102.347 34.4797 101.696 33.2723 100.516 33.2723C99.295 33.2723 98.5626 34.4797 98.5626 36.3116C98.5626 38.1435 99.3357 39.351 100.516 39.351C101.696 39.351 102.347 38.1852 102.347 36.3116ZM106.822 36.3949C106.822 32.8143 109.142 30.3578 112.478 30.3578C114.146 30.3578 115.408 30.8991 116.384 31.8567C117.686 33.1474 118.256 35.1458 118.215 37.4774H110.729C110.891 38.893 111.542 39.6424 112.722 39.6424C113.414 39.6424 114.024 39.3093 114.268 38.5599H118.052C117.401 41.1829 115.408 42.4736 112.6 42.4736C109.142 42.4319 106.822 40.0171 106.822 36.3949ZM110.729 35.1875H114.309C114.228 33.8135 113.495 33.1057 112.559 33.1057C111.461 33.0641 110.851 33.8552 110.729 35.1875ZM122.65 32.6477H122.732C123.545 31.0656 124.603 30.4411 125.946 30.4411C126.272 30.4411 126.475 30.4827 126.597 30.566V34.0633H126.516C124.196 33.647 122.854 34.7711 122.854 37.3525V42.1405H118.907V30.6909H122.65V32.6477ZM127.004 42.1405H130.788C130.951 42.6401 131.439 43.0981 132.375 43.0981C133.636 43.0981 134.084 42.307 134.084 41.0996V40.2669H134.002C133.392 41.0163 132.538 41.5576 131.317 41.5576C128.916 41.5576 126.8 39.7257 126.8 36.1451C126.8 32.8559 128.509 30.3162 131.113 30.3162C132.619 30.3162 133.514 30.9407 134.124 31.8983H134.206V30.6493H137.949V40.5584C137.949 42.3903 137.339 43.8059 136.403 44.6386C135.426 45.5129 134.043 45.8876 132.456 45.8876C129.445 45.9293 127.37 44.6802 127.004 42.1405ZM134.246 35.9785C134.246 34.563 133.595 33.3972 132.456 33.3972C131.358 33.3972 130.666 34.3964 130.666 35.9785C130.666 37.519 131.358 38.6015 132.456 38.6015C133.555 38.6015 134.246 37.4774 134.246 35.9785Z" fill="black"/>
</g>
<defs>
<clipPath id="clip0_580_1778">
<rect width="105" height="20" fill="white" transform="translate(33 26)"/>
</clipPath>
</defs>
</svg>
