<svg width="170" height="72" viewBox="0 0 170 72" fill="none" xmlns="http://www.w3.org/2000/svg">
<g clip-path="url(#clip0_580_1799)">
<rect width="111" height="20" transform="translate(29 26)" fill="white"/>
<path d="M127.27 26.5283H125.461C125.351 26.5283 125.26 26.6224 125.26 26.7359V35.4884C125.26 38.5412 124.095 40.0237 121.693 40.0237C119.32 40.0237 118.168 38.5412 118.168 35.4884V26.7359C118.168 26.6224 118.077 26.5283 117.968 26.5283H116.158C116.048 26.5283 115.957 26.6224 115.957 26.7359V35.3814C115.957 39.8161 117.939 42.1615 121.691 42.1615C125.47 42.1615 127.465 39.8161 127.465 35.3814V26.7359C127.468 26.6224 127.38 26.5283 127.27 26.5283Z" fill="black"/>
<path d="M134.7 29.6855C133.288 29.6855 132.079 30.237 131.196 31.2816L131.03 29.9937C131.017 29.8899 130.933 29.8153 130.832 29.8153H129.355C129.245 29.8153 129.154 29.9094 129.154 30.0229V45.3123C129.154 45.4258 129.245 45.5199 129.355 45.5199H131.061C131.171 45.5199 131.262 45.4258 131.262 45.3123V39.9466C132.048 40.8516 133.263 41.348 134.703 41.348C137.822 41.348 140.001 38.9506 140.001 35.5151C139.998 31.9726 137.919 29.6855 134.7 29.6855ZM137.85 35.5184C137.85 37.8184 136.516 39.3626 134.534 39.3626C132.561 39.3626 131.236 37.799 131.236 35.473C131.236 33.2346 132.593 31.6709 134.534 31.6709C136.519 31.6709 137.85 33.2183 137.85 35.5184Z" fill="black"/>
<path d="M70.2504 28.1986C72.3859 28.1986 73.9077 29.36 74.4274 31.3876C74.4494 31.4784 74.5308 31.54 74.6216 31.54H76.4314C76.4909 31.54 76.5473 31.5141 76.5849 31.4654C76.6225 31.42 76.6381 31.3584 76.6288 31.2967C76.0683 28.0689 73.6572 26.0608 70.3349 26.0608C66.0577 26.0608 63.1863 29.2303 63.1863 33.9439C63.1863 38.7322 65.9919 41.8237 70.3349 41.8237C73.6447 41.8237 76.0495 39.8189 76.6068 36.5878C76.6162 36.5262 76.6006 36.4645 76.563 36.4191C76.5254 36.3737 76.469 36.3445 76.4095 36.3445H74.5997C74.5089 36.3445 74.4306 36.4094 74.4056 36.497C73.8857 38.5213 72.3734 39.6827 70.2504 39.6827C67.3696 39.6827 65.4346 37.3761 65.4346 33.9407C65.4346 30.5052 67.3728 28.1986 70.2504 28.1986Z" fill="black"/>
<path d="M79.3045 26.042C78.5624 26.042 78.0019 26.6227 78.0019 27.3915C78.0019 28.1604 78.5624 28.7411 79.3045 28.7411C80.0466 28.7411 80.6071 28.1604 80.6071 27.3915C80.6071 26.6227 80.0466 26.042 79.3045 26.042Z" fill="black"/>
<path d="M80.1539 30.2881H78.4474C78.3378 30.2881 78.247 30.3822 78.247 30.4957V41.4899C78.247 41.6034 78.3378 41.6975 78.4474 41.6975H80.1539C80.2636 41.6975 80.3544 41.6034 80.3544 41.4899V30.4925C80.3544 30.3789 80.2636 30.2881 80.1539 30.2881Z" fill="black"/>
<path d="M87.8813 30.2884H87.4023C85.6018 30.2884 84.7814 31.0053 84.3243 31.6055L84.1677 30.4636C84.152 30.363 84.0675 30.2852 83.9704 30.2852H82.4925C82.3829 30.2852 82.2921 30.3792 82.2921 30.4928V41.4869C82.2921 41.6005 82.3829 41.6946 82.4925 41.6946H84.199C84.3086 41.6946 84.3994 41.6005 84.3994 41.4869V35.8844C84.3994 34.5933 84.7407 32.4262 87.0296 32.4262H87.8813C87.9909 32.4262 88.0817 32.3322 88.0817 32.2186V30.4928C88.0817 30.3792 87.994 30.2884 87.8813 30.2884Z" fill="black"/>
<path d="M93.6161 32.1433C95.0032 32.1433 96.0616 32.9673 96.3779 34.2909C96.3998 34.385 96.478 34.4499 96.572 34.4499H98.3005C98.3598 34.4499 98.4163 34.4239 98.4536 34.3753C98.4915 34.3298 98.5073 34.2682 98.4977 34.2065C98.053 31.6697 96.2526 30.158 93.6819 30.158C90.4379 30.158 88.2585 32.4937 88.2585 35.9681C88.2585 39.4685 90.4128 41.8237 93.6192 41.8237C96.2087 41.8237 98.0344 40.2925 98.4977 37.7329C98.5101 37.6713 98.4942 37.6096 98.4536 37.561C98.4129 37.5123 98.3598 37.4863 98.3005 37.4863H96.5939C96.5 37.4863 96.4185 37.5545 96.3998 37.6485C96.1023 39.0175 95.0658 39.8383 93.6192 39.8383C91.6966 39.8383 90.4065 38.2844 90.4065 35.9713C90.4034 33.681 91.6966 32.1433 93.6161 32.1433Z" fill="black"/>
<path d="M101.975 26.5547H100.269C100.159 26.5547 100.068 26.6488 100.068 26.7623V41.4872C100.068 41.6007 100.159 41.6948 100.269 41.6948H101.975C102.085 41.6948 102.176 41.6007 102.176 41.4872V26.7623C102.176 26.6488 102.085 26.5547 101.975 26.5547Z" fill="black"/>
<path d="M108.559 30.158C105.428 30.158 103.324 32.5034 103.324 35.9908C103.324 39.4782 105.518 41.8237 108.788 41.8237C111.255 41.8237 113.146 40.26 113.604 37.84C113.616 37.7783 113.601 37.7167 113.563 37.668C113.526 37.6193 113.469 37.5934 113.41 37.5934H111.681C111.59 37.5934 111.512 37.6583 111.487 37.7491C111.162 39.0565 110.106 39.835 108.662 39.835C106.828 39.835 105.601 38.5471 105.516 36.5488L113.554 36.539C113.654 36.539 113.745 36.4483 113.754 36.3347C113.772 36.0816 113.795 35.8189 113.795 35.5723C113.71 32.2828 111.656 30.158 108.559 30.158ZM111.599 34.664H105.644C105.888 33.1879 107.11 32.1239 108.578 32.1239C110.222 32.1239 111.371 33.0939 111.599 34.664Z" fill="black"/>
<path fill-rule="evenodd" clip-rule="evenodd" d="M36.6354 26.001C32.4248 26.001 29 29.55 29 33.9133C29 38.2766 32.4248 41.8223 36.6354 41.8223C40.846 41.8223 44.2709 38.2733 44.2709 33.9101C44.2709 29.5467 40.8429 26.001 36.6354 26.001Z" fill="black"/>
<path fill-rule="evenodd" clip-rule="evenodd" d="M59.5395 34.4056L52.9548 26.2739C52.6597 25.9103 52.1162 25.9071 51.8212 26.2739L45.2209 34.4056C45.019 34.6534 45.1898 35.0299 45.5035 35.0299H47.1342C47.4138 35.0299 47.6094 34.8529 47.6995 34.7402L50.9018 30.9431C51.0322 30.7887 51.2776 30.8852 51.2776 31.0879V41.3949C51.2776 41.662 51.4857 41.8776 51.7435 41.8776H53.0169C53.2747 41.8776 53.4829 41.662 53.4829 41.3949V31.0751C53.4829 30.8691 53.7282 30.7726 53.8587 30.9302L57.0733 34.7596C57.1665 34.8722 57.3436 35.0331 57.6977 35.0331H59.2569C59.5706 35.0331 59.7414 34.6534 59.5395 34.4056Z" fill="black"/>
</g>
<defs>
<clipPath id="clip0_580_1799">
<rect width="111" height="20" fill="white" transform="translate(29 26)"/>
</clipPath>
</defs>
</svg>
