<svg width="18" height="26" viewBox="0 0 18 26" fill="none" xmlns="http://www.w3.org/2000/svg">
<g clip-path="url(#clip0_706_1080)">
<path fill-rule="evenodd" clip-rule="evenodd" d="M11.7473 6.82997C10.4177 6.23755 8.93223 6.09078 7.51243 6.41157C6.09263 6.73235 4.81456 7.5035 3.86884 8.60999C2.92312 9.71649 2.36041 11.0991 2.26463 12.5515C2.16886 14.0039 2.54516 15.4484 3.3374 16.6695C4.12964 17.8906 5.29539 18.8229 6.66077 19.3273C8.02615 19.8318 9.51802 19.8813 10.9139 19.4686C12.3097 19.0559 13.5348 18.203 14.4063 17.0372C15.2778 15.8714 15.7492 14.4551 15.75 12.9995V12.3099C15.75 11.8957 16.0858 11.5599 16.5 11.5599C16.9142 11.5599 17.25 11.8957 17.25 12.3099V12.9999C17.249 14.7789 16.6729 16.5104 15.6077 17.9353C14.5425 19.3602 13.0452 20.4026 11.3392 20.907C9.63313 21.4115 7.80974 21.3509 6.14094 20.7344C4.47214 20.1178 3.04734 18.9784 2.07904 17.4859C1.11074 15.9935 0.650828 14.228 0.767883 12.4528C0.884939 10.6776 1.5727 8.9878 2.72858 7.63541C3.88447 6.28303 5.44655 5.34052 7.18186 4.94845C8.91716 4.55638 10.7327 4.73576 12.3578 5.45983C12.7361 5.62841 12.9062 6.07179 12.7376 6.45015C12.569 6.8285 12.1256 6.99855 11.7473 6.82997Z" fill="white"/>
<path fill-rule="evenodd" clip-rule="evenodd" d="M17.0301 6.4693C17.3231 6.76205 17.3233 7.23692 17.0306 7.52996L9.5306 15.0375C9.38997 15.1782 9.19917 15.2573 9.00019 15.2574C8.80122 15.2574 8.61037 15.1784 8.46967 15.0377L6.21967 12.7877C5.92678 12.4948 5.92678 12.02 6.21967 11.7271C6.51257 11.4342 6.98744 11.4342 7.28033 11.7271L8.99974 13.4465L15.9694 6.46983C16.2622 6.17679 16.737 6.17656 17.0301 6.4693Z" fill="white"/>
</g>
<defs>
<clipPath id="clip0_706_1080">
<rect width="18" height="18" fill="white" transform="translate(0 4)"/>
</clipPath>
</defs>
</svg>
