<svg width="526" height="456" viewBox="0 0 526 456" fill="none" xmlns="http://www.w3.org/2000/svg">
<path d="M83.9331 0.00146484H361.062C452.095 0.00146484 525.891 73.798 525.891 164.831V290.422C525.891 381.455 452.095 455.252 361.062 455.252H248.762C157.73 455.252 83.9331 381.455 83.9331 290.422V0.00146484Z" fill="#0070F0" fill-opacity="0.2"/>
<path d="M69.7829 69.7827C31.2429 69.7827 -1.36567e-06 38.5399 -3.05031e-06 -0.000144005V-0.000144005L69.7829 -0.000147055L69.7829 69.7827V69.7827Z" fill="#FFDCE0"/>
<path d="M68.2783 443.761L68.2783 437.115C68.2783 416.01 85.3875 398.901 106.493 398.901V398.901C127.598 398.901 144.707 416.01 144.707 437.115L144.707 443.761L68.2783 443.761Z" fill="#FEF3D9"/>
</svg>
