<svg width="56" height="56" viewBox="0 0 56 56" fill="none" xmlns="http://www.w3.org/2000/svg">
<path d="M42.6666 20.0002V14.6668C42.6666 14.3132 42.5262 13.9741 42.2761 13.724C42.0261 13.474 41.6869 13.3335 41.3333 13.3335H14.6666C14.313 13.3335 13.9739 13.474 13.7238 13.724C13.4738 13.9741 13.3333 14.3132 13.3333 14.6668V20.0002H42.6666Z" fill="#2EC5CE"/>
<path d="M13.3333 22.667V41.3337C13.3333 41.6873 13.4738 42.0264 13.7238 42.2765C13.9739 42.5265 14.313 42.667 14.6666 42.667H21.3333V22.667H13.3333Z" fill="#D6B1FF"/>
<path d="M24 42.667H41.3333C41.6869 42.667 42.0261 42.5265 42.2761 42.2765C42.5262 42.0264 42.6666 41.6873 42.6666 41.3337V22.667H24V42.667Z" fill="#8C30F5"/>
</svg>
