<svg width="170" height="72" viewBox="0 0 170 72" fill="none" xmlns="http://www.w3.org/2000/svg">
<g clip-path="url(#clip0_580_1833)">
<path d="M108.117 42.9355L109.789 42.9398C110.272 42.9409 111.002 42.7155 111.481 42.3038C111.133 41.0483 108.851 40.7577 107.904 40.7749L108.117 42.9355Z" fill="#FFCC00" stroke="#B79300" stroke-width="0.8"/>
<path d="M103.623 42.9495L103.553 49.1426L110.054 48.6435C111.063 48.4732 111.228 47.9611 111.254 47.3959L111.504 43.2156C111.504 43.2156 111.545 42.5605 111.508 42.3861C111.439 42.0584 111.19 41.9761 110.995 42.1751C110.751 42.424 110.137 42.8706 109.604 42.8663L103.623 42.9495Z" fill="#FFCC00" stroke="#B79300" stroke-width="0.8"/>
<path d="M62.6829 42.9606L61.0112 42.965C60.5282 42.9661 59.7987 42.7407 59.3196 42.3289C59.6673 41.0734 61.9491 40.7829 62.8964 40.8L62.6829 42.9606Z" fill="#FFCC00" stroke="#B79300" stroke-width="0.8"/>
<path d="M67.1788 42.9751L67.2489 49.1682L60.7478 48.6692C59.7384 48.4988 59.5736 47.9868 59.5476 47.4216L59.2976 43.2412C59.2976 43.2412 59.2569 42.5861 59.2937 42.4117C59.3629 42.084 59.612 42.0017 59.8066 42.2007C60.0501 42.4497 60.6646 42.8962 61.198 42.8919L67.1788 42.9751Z" fill="#FFCC00" stroke="#B79300" stroke-width="0.8"/>
<path fill-rule="evenodd" clip-rule="evenodd" d="M85.2299 12.353C84.1453 12.353 83.1325 12.9359 82.5843 13.8755C79.4324 20.6625 77.9917 20.4459 70.9644 20.6661C69.8917 20.7019 68.9263 21.2846 68.402 22.2003C67.8657 23.128 67.854 24.2695 68.3785 25.1973C72.4878 31.2662 71.8031 32.4019 68.5928 38.4336C68.0923 39.3613 68.1162 40.4909 68.6523 41.4068C69.1886 42.3223 70.1539 42.8934 71.2144 42.9291C78.7734 42.4084 79.2896 43.9412 83.1682 49.9344C83.7403 50.8264 84.6833 51.3496 85.7441 51.3375C86.7929 51.3257 87.8164 50.7667 88.3646 49.8749C91.6472 43.2368 92.8347 43.126 99.722 43.0841C100.807 43.072 101.808 42.4895 102.356 41.5618C102.892 40.6224 102.904 39.4691 102.38 38.5295C98.1507 32.4282 99.2139 31.1936 102.368 24.9358C102.845 23.9965 102.797 22.8785 102.26 21.9864C100.03 23.3678 100.03 23.3676 102.26 21.9864C101.724 21.0826 100.759 20.5237 99.7101 20.4998C92.1092 20.9992 91.4762 19.9402 87.8757 13.8517C87.3275 12.9239 86.3145 12.3531 85.2299 12.3531V12.353ZM85.2418 15.4097C89.1301 21.996 91.3028 24.214 99.6385 23.5566C96.2496 30.2803 94.9588 33.3282 99.6981 40.0157C92.2243 40.0765 89.258 40.9294 85.7441 48.2811V48.2814C81.5962 41.8381 79.6103 39.2137 71.298 39.8734C74.7745 33.3418 75.6696 30.3528 71.0598 23.7231C78.6451 23.485 81.8452 22.9546 85.2418 15.4098V15.4097Z" fill="#FFCC00"/>
<path fill-rule="evenodd" clip-rule="evenodd" d="M85.3286 14.7305C87.8798 21.0564 91.2691 24.4738 99.6374 23.5561C96.2485 30.2798 94.9577 33.3277 99.6971 40.0152C92.2233 40.0761 89.2569 40.929 85.7431 48.2807V48.2809C81.5951 41.8377 79.6093 39.2132 71.297 39.873C74.7734 33.3414 75.6685 30.3523 71.0587 23.7226C78.6441 23.4846 82.2558 22.5777 85.3286 14.7306V14.7305Z" stroke="#B79300" stroke-width="0.8" stroke-linecap="round" stroke-linejoin="round"/>
<path d="M83.1911 42.1177C83.1911 42.1177 83.2122 42.1071 83.2438 42.0966C83.286 42.0755 83.3388 42.0545 83.4126 42.0124C83.5709 41.9387 83.7924 41.8229 84.0667 41.665C84.3516 41.507 84.6786 41.2965 85.0584 41.0438C85.4277 40.7912 85.8391 40.4859 86.2506 40.1174C86.6726 39.7489 87.0945 39.3278 87.506 38.854C87.9069 38.3698 88.2972 37.8223 88.6137 37.2222C88.9302 36.6116 89.1834 35.9484 89.3417 35.2535C89.3628 35.1693 89.3839 35.0746 89.3944 34.9903L89.4366 34.7272C89.4683 34.5482 89.4788 34.3692 89.4999 34.1902L89.5105 34.0534V34.0218C89.5105 34.0218 89.5105 34.0112 89.5105 34.0218V34.0112V33.9902V33.9165L89.521 33.6322C89.5316 33.4427 89.521 33.2638 89.521 33.0743C89.5105 32.3373 89.4366 31.5898 89.3311 30.8634C89.2256 30.137 89.0674 29.4211 88.8986 28.7368C88.5504 27.3682 88.1179 26.1259 87.7065 25.0731C87.295 24.0203 86.8941 23.1571 86.6093 22.5675C86.4616 22.2727 86.3455 22.0411 86.2611 21.8832C86.1767 21.7253 86.1345 21.6411 86.1345 21.6411L86.4194 21.4832C86.4194 21.4832 86.4616 21.5674 86.5565 21.7253C86.6409 21.8832 86.7675 22.1148 86.9152 22.4096C87.2212 22.9992 87.6326 23.8624 88.0757 24.9152C88.5188 25.968 88.983 27.2313 89.3628 28.6105C89.7426 29.9896 90.038 31.5056 90.0907 33.0532C90.0907 33.2427 90.1013 33.4533 90.1013 33.6322V33.9165V33.9902V34.0112V34.0323V34.0639L90.0907 34.2113C90.0802 34.4113 90.0696 34.6008 90.038 34.7903L89.9958 35.0746C89.9747 35.1693 89.9536 35.2641 89.943 35.3588C89.7848 36.1168 89.5316 36.8432 89.194 37.5065C88.8564 38.1592 88.4555 38.7593 88.0335 39.2857C87.6115 39.8121 87.1684 40.2648 86.7359 40.6543C86.3033 41.0438 85.8813 41.3807 85.491 41.6544C85.1006 41.9282 84.7525 42.1493 84.4571 42.3282C84.1617 42.5072 83.9296 42.6335 83.7608 42.7178C83.6764 42.7599 83.6131 42.7914 83.5709 42.8125C83.5287 42.8336 83.497 42.8441 83.497 42.8441L83.4654 42.823C83.2544 42.6862 83.1383 42.4019 83.1911 42.1177H83.1911Z" fill="#FFCC00" stroke="#B79300" stroke-width="0.8" stroke-miterlimit="10" stroke-linejoin="round"/>
<path fill-rule="evenodd" clip-rule="evenodd" d="M85.23 12.3529C84.1455 12.3529 83.1327 12.9357 82.5844 13.8753C79.4326 20.6623 77.9918 20.4457 70.9645 20.6659C69.8918 20.7017 68.9264 21.2843 68.4022 22.2C67.8658 23.1278 67.8541 24.2693 68.3786 25.1971C72.4879 31.266 71.8032 32.4017 68.5929 38.4334C68.0924 39.3611 68.1163 40.4907 68.6524 41.4067C69.1887 42.3221 70.154 42.8932 71.2145 42.9289C78.7735 42.4082 79.2897 43.9411 83.1683 49.9342C83.7404 50.8263 84.7296 51.3494 85.7905 51.3373C86.8392 51.3255 87.8165 50.7665 88.3647 49.8747C91.6473 43.2366 92.8348 43.1258 99.7222 43.0839C100.807 43.0718 101.808 42.4892 102.356 41.5615C102.892 40.6221 102.904 39.4689 102.38 38.5294C98.151 32.4281 99.2141 31.1935 102.368 24.9357C102.845 23.9964 102.797 22.8784 102.261 21.9863V21.986C101.725 21.0822 100.759 20.5233 99.7103 20.4994C92.1094 20.9988 91.4763 19.9398 87.8758 13.8513C87.3276 12.9235 86.3146 12.3528 85.23 12.3528V12.3529Z" stroke="#B79300" stroke-width="0.8"/>
<path d="M83.7392 38.8447V46.0236H85.385H87.0414V38.8447H83.7392Z" fill="#FFCC00" stroke="#B79300" stroke-width="0.8" stroke-miterlimit="10"/>
<path d="M87.028 40.6941L83.7787 41.9048L83.8349 42.1072L87.028 40.9152V40.6941Z" fill="#B79300"/>
<path d="M83.7615 41.0748L87.0003 39.8642V39.6431L83.7615 40.8538V41.0748Z" fill="#B79300"/>
<path d="M81.4716 17.408C81.4716 17.408 86.0519 18.4377 86.2501 22.5337L81.4716 17.408Z" fill="#FFCC00"/>
<path d="M81.4716 17.408C81.4716 17.408 86.0519 18.4377 86.2501 22.5337" stroke="#B79300" stroke-width="0.8" stroke-miterlimit="10"/>
<path d="M86.2507 22.5337C86.2507 22.5376 86.2507 22.5416 86.2517 22.5455C86.2411 22.535 83.3399 23.1667 81.4725 17.408" fill="#B79300"/>
<path d="M86.2507 22.5337C86.2507 22.5376 86.2507 22.5416 86.2517 22.5455C86.2411 22.535 83.3399 23.1667 81.4725 17.408" stroke="#B79300" stroke-width="0.8" stroke-miterlimit="10"/>
<path d="M81.4716 17.408C83.2974 19.2714 84.5586 20.9453 86.0185 22.356L86.2506 22.535" stroke="#B79300" stroke-width="0.8" stroke-miterlimit="10"/>
<path d="M84.415 17.3134L85.3961 14.6467V38.3657H83.7398V32.5366V21.1666C83.7398 19.8506 83.9719 18.5557 84.415 17.3134H84.415Z" fill="#FFCC00"/>
<path d="M86.3775 17.3134L85.3964 14.6467V38.3657H87.0527V32.5366V21.1666C87.0527 19.8506 86.8206 18.5557 86.3775 17.3134H86.3775Z" fill="#B79300"/>
<path d="M87.0283 44.8064L83.7392 46.0229V46.2545L87.0283 45.038V44.8064Z" fill="#B79300"/>
<path d="M87.559 46.9806H83.2336C83.0331 46.9806 82.8643 46.8121 82.8643 46.6121V46.012C82.8643 45.812 83.0331 45.6436 83.2336 45.6436H87.559C87.7595 45.6436 87.9283 45.812 87.9283 46.012V46.6121C87.9283 46.8121 87.7595 46.9806 87.559 46.9806Z" fill="#FFCC00" stroke="#B79300" stroke-width="0.8" stroke-miterlimit="10"/>
<path d="M87.0295 43.7534L83.7751 44.9689V45.2005L87.0295 43.985V43.7534Z" fill="#B79300"/>
<path d="M87.0291 42.7307L83.7717 43.9392V44.1708L87.0291 42.9623V42.7307Z" fill="#B79300"/>
<path d="M87.0287 41.7219L83.764 42.9386V43.1597L87.0287 41.943V41.7219Z" fill="#B79300"/>
<path d="M85.3958 37.674V14.6934" stroke="#B79300" stroke-width="0.8" stroke-miterlimit="10" stroke-linecap="round" stroke-linejoin="round"/>
<path d="M90.3893 33.6657C90.3539 33.676 90.3182 33.6859 90.282 33.6956C90.282 33.6956 90.1769 29.6265 93.5645 27.3918" fill="#FFCC00"/>
<path d="M90.3893 33.6657C90.3539 33.676 90.3182 33.686 90.282 33.6956C90.282 33.6956 90.1769 29.6265 93.5645 27.3918" stroke="#B79300" stroke-width="0.8" stroke-miterlimit="10"/>
<path d="M93.563 27.3916C93.5696 27.3873 93.5762 27.383 93.5828 27.3787C93.5861 27.4035 94.2978 32.5284 90.3879 33.6655" fill="#B79300"/>
<path d="M93.563 27.3916C93.5696 27.3873 93.5762 27.383 93.5828 27.3787C93.5861 27.4035 94.2978 32.5284 90.3879 33.6655" stroke="#B79300" stroke-width="0.8" stroke-miterlimit="10"/>
<path d="M89.9325 19.3032C89.9325 19.3032 92.3063 25.3567 88.9831 27.4623L89.9325 19.3032Z" fill="#B79300"/>
<path d="M89.9325 19.3032C89.9325 19.3032 92.3063 25.3567 88.9831 27.4623" stroke="#B79300" stroke-width="0.8" stroke-miterlimit="10"/>
<path d="M88.9835 27.4623C88.9835 27.4623 87.1056 21.9562 89.933 19.3032L88.9835 27.4623Z" fill="#FFCC00"/>
<path d="M88.9835 27.4623C88.9835 27.4623 87.1056 21.9562 89.933 19.3032" stroke="#B79300" stroke-width="0.8" stroke-miterlimit="10"/>
<path d="M94.5282 34.2341C94.475 34.8087 93.8878 38.9448 87.5914 39.8326L94.5282 34.2341Z" fill="#B79300"/>
<path d="M94.5282 34.2341C94.475 34.8087 93.8878 38.9448 87.5914 39.8326" stroke="#B79300" stroke-width="0.8" stroke-miterlimit="10"/>
<path d="M85.3589 14.8279L84.4146 17.3135C83.9715 18.5558 83.7394 19.8507 83.7394 21.1667V32.5367V38.3659H85.3957H87.052V32.5367V21.1667C87.052 19.8507 86.8199 18.5558 86.3768 17.3135L85.3589 14.8279Z" stroke="#B79300" stroke-width="0.8" stroke-miterlimit="10"/>
<path d="M82.0735 28.042C84.7111 30.2489 87.2595 31.9198 89.7644 33.8849" stroke="black" stroke-width="0.8" stroke-miterlimit="10"/>
<path d="M82.0736 28.042C82.0736 28.042 88.0343 28.6526 89.7539 33.7586C89.7539 33.7579 89.7332 33.7599 89.6937 33.7626" fill="#FFCC00"/>
<path d="M82.0736 28.042C82.0736 28.042 88.0343 28.6526 89.7539 33.7586C89.7539 33.7579 89.7332 33.7599 89.6937 33.7626" stroke="#B79300" stroke-width="0.8" stroke-miterlimit="10"/>
<path d="M89.6937 33.7626C89.1007 33.8035 84.2794 34.0139 82.0736 28.042L89.6937 33.7626Z" fill="#B79300"/>
<path d="M89.6937 33.7626C89.1007 33.8035 84.2794 34.0139 82.0736 28.042" stroke="#B79300" stroke-width="0.8" stroke-miterlimit="10"/>
<path d="M82.0736 28.042C84.7112 30.2489 87.2596 31.9198 89.7645 33.8849" stroke="#B79300" stroke-width="0.8" stroke-miterlimit="10"/>
<path d="M93.573 27.3784C92.467 29.6509 91.4402 31.757 90.2814 33.8846" stroke="#B79300" stroke-width="0.8" stroke-miterlimit="10"/>
<path d="M87.5914 39.8321C87.5914 39.8321 92.5245 35.9223 94.5236 34.2788" stroke="#B79300" stroke-width="0.8" stroke-miterlimit="10"/>
<path d="M88.5611 27.567C86.2978 26.1177 84.0462 24.7297 82.1994 22.7664" stroke="black" stroke-width="0.8" stroke-miterlimit="10"/>
<path d="M89.9325 19.3032C89.6776 22.0518 89.3322 24.8908 88.983 27.1991V27.4623" stroke="#B79300" stroke-width="0.8" stroke-miterlimit="10"/>
<path fill-rule="evenodd" clip-rule="evenodd" d="M67.3525 42.95L63.5596 48.8874C69.2235 56.1935 76.1254 59.7912 85.378 59.7261C94.6306 59.7912 101.533 56.1935 107.197 48.8874L103.404 42.95C100.594 49.1285 93.5378 53.6719 85.378 53.6419C77.2183 53.6718 70.162 49.1284 67.3525 42.95Z" fill="#FFCC00" stroke="#B79300" stroke-width="0.8" stroke-linecap="round" stroke-linejoin="round"/>
<path d="M88.3756 27.5011C87.8467 27.6407 83.7099 28.1845 82.0287 22.5781L88.3756 27.5011Z" fill="#B79300"/>
<path d="M88.3756 27.5011C87.8467 27.6407 83.7099 28.1845 82.0287 22.5781" stroke="#B79300" stroke-width="0.8" stroke-miterlimit="10"/>
<path d="M82.0287 22.5781C82.0287 22.5781 86.9934 23.1036 88.4258 27.4976C88.4258 27.497 88.4085 27.4987 88.3756 27.5011" fill="#FFCC00"/>
<path d="M82.0287 22.5781C82.0287 22.5781 86.9934 23.1036 88.4258 27.4976C88.4258 27.497 88.4085 27.4987 88.3756 27.5011" stroke="#B79300" stroke-width="0.8" stroke-miterlimit="10"/>
<path d="M82.0287 22.5781C84.2256 24.4773 86.3482 25.9152 88.4345 27.6063" stroke="#B79300" stroke-width="0.8" stroke-miterlimit="10"/>
<path d="M85.3959 39.5484L83.7499 39.9801L81.4819 38.5693L85.3959 38.5952" fill="#B79300"/>
<path d="M85.3959 39.5484L83.7499 39.9801L81.4819 38.5693L85.3959 38.5952" stroke="#B79300" stroke-width="0.8" stroke-miterlimit="10" stroke-linecap="round" stroke-linejoin="round"/>
<path d="M85.3961 39.5493L87.2106 39.981L89.0761 38.5718L85.3961 38.5961" fill="#B79300"/>
<path d="M85.3961 39.5493L87.2106 39.981L89.0761 38.5718L85.3961 38.5961" stroke="#B79300" stroke-width="0.8" stroke-miterlimit="10" stroke-linecap="round" stroke-linejoin="round"/>
<path d="M81.5261 38.5691H88.4002" stroke="black" stroke-width="0.8" stroke-miterlimit="10"/>
<path d="M85.3961 38.5953L89.0761 38.571L87.0522 37.0588L85.3961 37.4905" fill="#FFCC00"/>
<path d="M85.3961 38.5953L89.0761 38.571L87.0522 37.0588L85.3961 37.4905" stroke="#B79300" stroke-width="0.8" stroke-miterlimit="10" stroke-linecap="round" stroke-linejoin="round"/>
<path d="M85.3959 38.5953L81.4819 38.5694L83.7395 37.0588L85.3959 37.4905" fill="#FFCC00"/>
<path d="M85.3959 38.5953L81.4819 38.5694L83.7395 37.0588L85.3959 37.4905" stroke="#B79300" stroke-width="0.8" stroke-miterlimit="10" stroke-linecap="round" stroke-linejoin="round"/>
<path d="M87.5913 39.8322C87.566 39.8259 90.0235 35.0092 94.5332 34.1682C94.5332 34.1726 94.5317 34.1951 94.5281 34.2338" fill="#FFCC00"/>
<path d="M87.5913 39.8322C87.566 39.8259 90.0235 35.0092 94.5332 34.1682C94.5332 34.1726 94.5317 34.1951 94.5281 34.2338" stroke="#B79300" stroke-width="0.8" stroke-miterlimit="10"/>
<path d="M83.1911 42.1165C83.1911 42.1165 83.2122 42.106 83.2438 42.0955C83.286 42.0744 83.3388 42.0534 83.4126 42.0113C83.5709 41.9376 83.7924 41.8218 84.0667 41.6639C84.3516 41.5059 84.6786 41.2954 85.0584 41.0427C85.4277 40.79 85.8391 40.4847 86.2506 40.1163C86.6726 39.7478 87.0945 39.3267 87.506 38.8529C87.9069 38.3686 88.2972 37.8212 88.6137 37.2211C88.9302 36.6105 89.1834 35.9472 89.3417 35.2524C89.3628 35.1682 89.3839 35.0734 89.3944 34.9892L89.4366 34.726C89.4683 34.5471 89.4788 34.3681 89.4999 34.1891L89.5105 34.0522V34.0206C89.5105 34.0206 89.5105 34.0101 89.5105 34.0206V34.0101V33.989V33.9154L89.521 33.6311C89.5316 33.4416 89.521 33.2626 89.521 33.0731C89.5105 32.3362 89.4366 31.5887 89.3311 30.8623C89.2256 30.1359 88.9676 29.0667 88.7988 28.3824L89.263 28.2561C89.6428 29.6352 90.038 31.5045 90.0907 33.0521C90.0907 33.2416 90.1013 33.4521 90.1013 33.6311V33.9154V33.989V34.0101V34.0312V34.0628L90.0907 34.2102C90.0802 34.4102 90.0696 34.5997 90.038 34.7892L89.9958 35.0734C89.9747 35.1682 89.9536 35.2629 89.943 35.3577C89.7848 36.1157 89.5316 36.8421 89.194 37.5054C88.8564 38.1581 88.4555 38.7582 88.0335 39.2846C87.6115 39.811 87.1684 40.2637 86.7359 40.6532C86.3033 41.0427 85.8813 41.3796 85.491 41.6533C85.1006 41.927 84.7525 42.1481 84.4571 42.3271C84.1617 42.5061 83.9296 42.6324 83.7608 42.7166C83.6764 42.7587 83.6131 42.7903 83.5709 42.8114C83.5287 42.8324 83.497 42.843 83.497 42.843L83.4654 42.8219C83.2544 42.6851 83.1383 42.4008 83.1911 42.1165H83.1911Z" fill="#B79300" stroke="#B79300" stroke-width="0.8" stroke-miterlimit="10" stroke-linejoin="round"/>
<path d="M88.8772 27.1463C89.1831 27.1463 89.4363 27.399 89.4363 27.7043C89.4363 28.0096 89.1831 28.2623 88.8772 28.2623C88.5712 28.2623 88.318 28.0096 88.318 27.7043C88.318 27.399 88.5712 27.1463 88.8772 27.1463ZM88.8772 26.9358C88.4446 26.9358 88.107 27.2832 88.107 27.7043C88.107 28.136 88.4552 28.4728 88.8772 28.4728C89.2992 28.4728 89.6473 28.1254 89.6473 27.7043C89.6473 27.2832 89.3097 26.9358 88.8772 26.9358Z" fill="#B79300"/>
<path d="M88.8772 28.3783C88.5079 28.3783 88.2125 28.0835 88.2125 27.715C88.2125 27.3465 88.5079 27.0518 88.8772 27.0518C89.2464 27.0518 89.5418 27.3465 89.5418 27.715C89.5418 28.0835 89.2464 28.3783 88.8772 28.3783Z" fill="url(#paint0_radial_580_1833)"/>
<path d="M89.7535 33.2953C90.0805 33.2953 90.3548 33.5585 90.3548 33.8954C90.3548 34.2217 90.0911 34.4954 89.7535 34.4954C89.4264 34.4954 89.1521 34.2322 89.1521 33.8954C89.1627 33.5585 89.4264 33.2953 89.7535 33.2953ZM89.7535 33.0847C89.3104 33.0847 88.9411 33.4427 88.9411 33.8954C88.9411 34.3375 89.2998 34.706 89.7535 34.706C90.1966 34.706 90.5658 34.3481 90.5658 33.8954C90.5658 33.4427 90.2071 33.0847 89.7535 33.0847Z" fill="#B79300"/>
<path d="M89.7533 34.5904C89.363 34.5904 89.0465 34.2746 89.0465 33.885C89.0465 33.4955 89.363 33.1797 89.7533 33.1797C90.1437 33.1797 90.4601 33.4955 90.4601 33.885C90.4601 34.2746 90.1437 34.5904 89.7533 34.5904Z" fill="url(#paint1_radial_580_1833)"/>
<path d="M87.4947 57.2227C87.7073 57.2012 87.9197 57.1773 88.1319 57.1511C88.4356 57.1135 88.5541 56.9853 88.4749 56.6949C88.4053 56.4397 88.3367 56.1843 88.2691 55.9287C88.2575 55.8915 88.2301 55.8756 88.1869 55.8808C87.9747 55.906 87.7622 55.9288 87.5494 55.9493C87.643 55.6831 87.7332 55.4165 87.8201 55.1495C88.1218 55.1167 88.4228 55.079 88.7226 55.0361C88.808 55.0239 88.868 55.0307 88.9029 55.0572C88.9391 55.0817 88.97 55.1377 88.9956 55.2254C89.2195 55.9854 89.4528 56.7431 89.6956 57.4983C89.4357 57.6493 89.1721 57.7966 88.9051 57.9402C88.809 57.6669 88.7147 57.3931 88.622 57.1189C88.5193 57.3923 88.4128 57.6652 88.3026 57.9375C87.9549 57.98 87.6069 58.0162 87.2587 58.0464C87.34 57.7722 87.4187 57.4976 87.4947 57.2227Z" fill="#B79300"/>
<path d="M78.7473 53.8012C78.4946 53.856 78.239 53.9052 77.9803 53.9482C77.8667 54.2696 77.753 54.591 77.6393 54.9123C77.6236 54.9362 77.6312 54.9536 77.6621 54.9643C78.1178 55.1223 78.58 55.2619 79.0474 55.3843L78.709 56.6702C78.4385 56.5991 78.1693 56.5226 77.9016 56.4404C77.7386 56.6464 77.5725 56.8508 77.4031 57.0533C77.9346 57.2246 78.4714 57.3743 79.0117 57.5036C79.2062 57.3497 79.3969 57.1931 79.584 57.0342L80.0159 55.04C80.0482 54.8909 79.9746 54.8205 79.8593 54.7945C79.4174 54.6949 78.9803 54.58 78.5493 54.4489C78.6153 54.233 78.6813 54.0171 78.7473 53.8012Z" fill="#B79300"/>
<path d="M97.3032 52.4167C97.3564 52.1791 97.405 51.9419 97.449 51.7052C98.0915 51.8997 98.7536 52.0658 99.4323 52.2036C99.4659 52.2068 99.4731 52.1948 99.4529 52.1687C99.3242 51.9972 99.1954 51.8256 99.0667 51.6541C98.9689 51.7272 98.8706 51.7995 98.7717 51.8711C98.7011 51.607 98.6273 51.3442 98.5506 51.0828C98.6358 51.0195 98.7206 50.9554 98.8049 50.8908C98.8899 50.8257 98.9744 50.7599 99.0585 50.6935C99.1702 50.6054 99.272 50.6199 99.3644 50.74C99.5682 51.0025 99.7718 51.265 99.9752 51.5277C100.015 51.5826 100.022 51.6338 99.996 51.6813C99.8938 51.8691 99.7885 52.0562 99.6801 52.2425C100.073 52.3235 100.472 52.3951 100.876 52.4575C100.784 52.7032 100.687 52.9488 100.586 53.1942C99.8356 53.0656 99.1026 52.9051 98.3909 52.7122C98.3509 52.7035 98.341 52.7143 98.3615 52.7445C98.5187 52.9819 98.676 53.2193 98.8331 53.4567C98.9548 53.3755 99.0757 53.2931 99.1958 53.2097C99.2891 53.441 99.3809 53.673 99.4711 53.9058C99.19 54.098 98.9047 54.2845 98.6152 54.4652C98.5717 54.4923 98.5339 54.4799 98.5018 54.4284L97.8134 53.3223C97.7813 53.2707 97.7787 53.2295 97.8054 53.1986C97.8996 53.0154 97.9906 52.8318 98.0784 52.6479C97.8169 52.5753 97.5585 52.4982 97.3032 52.4167L97.3032 52.4167Z" fill="#B79300"/>
<path d="M93.2059 56.9984L92.7769 55.6126L92.7546 55.5405C92.7573 55.5251 92.7724 55.5078 92.7997 55.4883C93.0392 55.3493 93.2751 55.2064 93.5073 55.0596L93.99 56.4303C93.7337 56.624 93.4722 56.8134 93.2059 56.9984Z" fill="#B79300"/>
<path d="M92.5514 54.1721C92.821 54.0862 93.0886 53.995 93.354 53.8984C93.7063 53.7702 94.0547 53.6323 94.3985 53.4846C94.6332 53.3837 94.8046 53.448 94.9133 53.6879L95.8252 55.7008C95.5717 55.922 95.312 56.1384 95.0465 56.35L94.2826 54.4497C94.2625 54.3997 94.2186 54.3884 94.1511 54.415C93.6282 54.6214 93.097 54.8067 92.5592 54.9719C92.5593 54.7049 92.5567 54.4383 92.5514 54.1721Z" fill="#B79300"/>
<path d="M89.9939 57.7708L89.7423 56.3389L89.7293 56.2644C89.7339 56.2495 89.7511 56.2341 89.7807 56.2182C90.0361 56.1102 90.2888 55.9984 90.5386 55.883L90.8385 57.3071C90.561 57.4661 90.2793 57.6206 89.9939 57.7708Z" fill="#B79300"/>
<path d="M89.7008 54.8781C89.9816 54.8268 90.2612 54.7708 90.5393 54.7098C90.9085 54.6289 91.2751 54.5394 91.6386 54.4408C91.8868 54.3735 92.0481 54.4616 92.1217 54.7138L92.7399 56.8317C92.4609 57.0152 92.1768 57.1939 91.888 57.3677L91.3892 55.3808C91.3761 55.3285 91.3341 55.3113 91.2634 55.3287C90.7158 55.4627 90.1629 55.5776 89.6061 55.6744C89.64 55.4088 89.6716 55.1434 89.7008 54.8781Z" fill="#B79300"/>
<path d="M99.696 50.1722C99.8034 50.4166 99.9086 50.6623 100.012 50.9093C100.35 50.6279 100.682 50.337 101.006 50.0375C101.022 50.0219 101.039 50.0064 101.056 49.9908C101.1 49.9493 101.142 49.9493 101.182 49.9913L101.712 50.5549C101.857 50.7099 101.977 50.8317 102.063 50.9131C101.684 51.268 101.294 51.612 100.894 51.944C100.972 52.1876 101.047 52.4325 101.119 52.6786C101.864 52.0757 102.574 51.4328 103.248 50.7566C103.16 50.5091 103.069 50.263 102.975 50.0186C102.858 50.1396 102.739 50.2596 102.619 50.3785C102.314 50.6804 102.623 50.1873 102.391 49.9563L101.376 48.9477C101.262 48.8345 101.134 48.8498 101.045 48.9371C100.61 49.366 100.16 49.7785 99.696 50.1722L99.696 50.1722Z" fill="#B79300"/>
<path d="M103.466 50.5345C103.378 50.2954 103.286 50.0578 103.193 49.8217C103.556 49.441 103.907 49.0503 104.247 48.6507C103.982 48.7014 103.576 48.7119 103.105 48.7312C102.975 48.7343 102.727 48.7165 102.377 48.67C102.264 48.7912 102.15 48.9114 102.034 49.0305C101.937 48.763 101.836 48.4974 101.732 48.2339C101.886 48.07 102.038 47.904 102.188 47.7361C102.223 47.697 102.273 47.6923 102.337 47.7221C102.624 47.8459 102.911 47.9133 103.198 47.9219C103.353 47.9246 103.574 47.9126 103.856 47.8813C103.915 47.8777 103.919 47.854 103.867 47.8108L103.441 47.4596C103.377 47.5367 103.313 47.6134 103.248 47.6898C103.121 47.4436 102.991 47.1994 102.859 46.957C102.997 46.7913 103.132 46.624 103.266 46.4552C103.358 46.3386 103.463 46.327 103.581 46.4224C103.828 46.6265 104.075 46.8308 104.321 47.0354C104.256 47.3084 104.186 47.5819 104.111 47.8558C104.403 47.8242 104.736 47.7806 105.077 47.6941C105.164 47.9353 105.249 48.1783 105.331 48.4232C104.746 49.1544 104.124 49.8603 103.466 50.5345L103.466 50.5345Z" fill="#B79300"/>
<path d="M85.1781 58.1519C85.2142 57.9057 85.2493 57.6595 85.2833 57.4133C85.3328 57.4123 85.3823 57.4112 85.4317 57.4099C85.6579 57.405 85.8843 57.3976 86.1107 57.3877L86.0509 56.0551C85.9075 56.0615 85.764 56.067 85.6205 56.0714C85.6585 55.8144 85.6955 55.5573 85.7312 55.3001C86.0429 55.2887 86.3543 55.2727 86.6652 55.2517C86.7857 55.2435 86.8779 55.2904 86.8893 55.4429L87.0538 57.6423C86.9167 57.7954 86.7774 57.9476 86.6362 58.0988C86.2401 58.1221 85.8443 58.1378 85.449 58.146C85.3588 58.1484 85.2685 58.1504 85.1781 58.1519L85.1781 58.1519Z" fill="#B79300"/>
<path d="M76.2285 54.3951C76.3746 54.1805 76.5188 53.9651 76.6612 53.7487C76.9006 53.8547 77.1427 53.9547 77.3872 54.049C77.5681 54.1186 77.6292 54.2375 77.5659 54.4106L77.5569 54.435C77.4335 54.7732 77.3101 55.1114 77.1867 55.4497C76.8804 55.4415 76.5719 55.4254 76.2614 55.4009L76.6143 54.5629C76.485 54.5085 76.3564 54.4526 76.2285 54.3951L76.2285 54.3951Z" fill="#B79300"/>
<path d="M73.2331 51.8108C72.9916 51.9552 72.7475 52.0969 72.5011 52.236C72.6052 52.3099 72.7099 52.3829 72.8151 52.4552C72.4725 53.0801 72.135 53.7081 71.8028 54.3392C72.3162 54.6709 72.8426 54.9865 73.3822 55.2829C73.8963 55.5663 74.3059 55.6698 74.5805 55.623C74.7827 55.5927 74.9973 55.438 75.223 55.1589C75.5881 54.7109 75.9443 54.257 76.2912 53.7972C76.3029 53.7796 76.3119 53.7637 76.3185 53.7495C76.3581 53.6641 76.3255 53.5978 76.222 53.5489C75.9564 53.4236 75.6935 53.2916 75.4331 53.1535C75.2432 53.3421 75.0508 53.5288 74.856 53.7137C74.9678 53.7747 75.0802 53.8347 75.193 53.8936C74.948 54.1688 74.6991 54.4413 74.4465 54.7111C74.3874 54.782 74.3234 54.8156 74.2543 54.8117C74.1627 54.8151 74.0228 54.7687 73.8369 54.6715C73.5232 54.508 73.2133 54.3374 72.9074 54.1605C72.9702 54.0467 73.0331 53.9329 73.0961 53.8192C73.3057 53.9369 73.5169 54.0516 73.7297 54.163C73.8309 54.2161 73.9218 54.2179 74 54.1726C74.4153 53.8017 74.8212 53.4233 75.2168 53.037C74.9396 52.8856 74.6654 52.7273 74.3941 52.5629C74.1622 52.7214 73.9273 52.877 73.6895 53.0299C73.7974 53.0976 73.9059 53.1643 74.0149 53.2302C74.0166 53.2294 74.0183 53.2286 74.02 53.2278C73.889 53.3437 73.7571 53.4588 73.6243 53.5732C73.4957 53.6733 73.4013 53.6496 73.2474 53.5574C73.4506 53.1812 73.6551 52.8057 73.8609 52.4311C73.9176 52.333 73.8947 52.2516 73.7933 52.1857C73.6051 52.0635 73.4184 51.9385 73.2331 51.8108L73.2331 51.8108Z" fill="#B79300"/>
<path d="M71.1675 50.2409C71.2695 50.3256 71.372 50.4097 71.4749 50.493C71.6234 50.6133 71.7728 50.7321 71.9233 50.8494C72.0737 50.9665 72.225 51.0821 72.3774 51.1961C72.5856 51.3518 72.615 51.5341 72.4597 51.7468L71.1557 53.5336C70.8416 53.4269 70.5286 53.3144 70.2171 53.1967L71.4777 51.5775C71.5091 51.5372 71.4996 51.4959 71.4497 51.4535C71.4469 51.4511 71.4439 51.4487 71.4408 51.4463C71.1203 51.196 70.8047 50.9395 70.4935 50.6773C70.7194 50.5332 70.9441 50.3877 71.1675 50.2409L71.1675 50.2409Z" fill="#B79300"/>
<path d="M82.0804 58.0857L82.2274 56.6384L82.235 56.5631C82.2435 56.55 82.2643 56.5398 82.2972 56.5325C82.5727 56.4977 82.8467 56.458 83.1189 56.4137L83.024 57.8686C82.7129 57.9469 82.3983 58.0194 82.0804 58.0857Z" fill="#B79300"/>
<path d="M82.583 55.2184C82.8664 55.2442 83.1507 55.2647 83.4356 55.2803C83.8137 55.3009 84.1929 55.3128 84.5723 55.3164C84.8316 55.3188 84.9637 55.4481 84.9657 55.7113L84.9816 57.9223C84.6648 58.0236 84.344 58.1194 84.0193 58.2092L84.0754 56.1564C84.0768 56.1023 84.0409 56.0745 83.9679 56.0721C83.4026 56.0542 82.838 56.0174 82.2763 55.9603C82.3811 55.7137 82.4833 55.4664 82.583 55.2184Z" fill="#B79300"/>
<path d="M68.029 46.3313C67.7706 46.2425 67.5119 46.1512 67.2531 46.0578C67.0005 46.2886 66.7479 46.5195 66.4954 46.7503C66.4701 46.764 66.4687 46.7831 66.4914 46.8075C66.8241 47.1671 67.1609 47.5228 67.5024 47.8735L66.544 48.8028C66.3543 48.608 66.1662 48.4118 65.9798 48.2146C65.7375 48.316 65.4946 48.4165 65.2512 48.5161C65.6117 48.9012 65.9784 49.2828 66.3522 49.6596C66.5945 49.6262 66.8363 49.5912 67.0773 49.5547L68.5208 48.104C68.6286 47.9956 68.603 47.8945 68.5164 47.8079C68.185 47.4764 67.8578 47.1394 67.5343 46.7979C67.6992 46.6424 67.8641 46.4868 68.0291 46.3313L68.029 46.3313Z" fill="#B79300"/>
<path d="M68.6014 48.4533C68.8482 48.4511 69.0941 48.4467 69.339 48.4401C69.3012 49.1188 69.2793 49.8028 69.277 50.4931C69.2804 50.5265 69.2935 50.5311 69.3153 50.5063C69.4584 50.3462 69.6016 50.1862 69.7448 50.0261C69.653 49.9444 69.5617 49.8621 69.4707 49.7795C69.7161 49.6568 69.9604 49.5326 70.2033 49.4068C70.2841 49.479 70.3651 49.5509 70.4464 49.6224C70.5283 49.6944 70.6105 49.7659 70.693 49.8371C70.8026 49.9316 70.8077 50.035 70.7067 50.1478C70.4861 50.3965 70.2654 50.645 70.0446 50.8934C69.998 50.9428 69.9489 50.9593 69.8974 50.9427C69.6938 50.8781 69.4903 50.8114 69.2868 50.7427C69.2828 51.1423 69.2854 51.5441 69.2953 51.9482C69.039 51.9063 68.7824 51.8614 68.5254 51.8138C68.5158 51.063 68.5298 50.3201 68.5634 49.5841C68.5633 49.5432 68.5505 49.5359 68.5254 49.5625C68.3275 49.7683 68.1296 49.974 67.9317 50.1797C68.036 50.2784 68.1409 50.3767 68.2463 50.4745C68.0399 50.6154 67.8329 50.7556 67.6253 50.8951C67.384 50.6697 67.1456 50.4418 66.91 50.2119C66.8747 50.1774 66.8784 50.1384 66.9212 50.095L67.8378 49.1635C67.8805 49.12 67.9201 49.1076 67.9564 49.1261C68.1569 49.174 68.3572 49.2203 68.5572 49.265C68.5694 48.9935 68.5842 48.723 68.6014 48.4533Z" fill="#B79300"/>
<path d="M108.117 42.9355L109.789 42.9398C110.272 42.9409 111.002 42.7155 111.481 42.3038C111.133 41.0483 108.851 40.7577 107.904 40.7749L108.117 42.9355Z" fill="#FFCC00" stroke="#B79300" stroke-width="0.8"/>
<path d="M103.623 42.9495L103.553 49.1426L110.054 48.6435C111.063 48.4732 111.228 47.9611 111.254 47.3959L111.504 43.2156C111.504 43.2156 111.545 42.5605 111.508 42.3861C111.439 42.0584 111.19 41.9761 110.995 42.1751C110.751 42.424 110.137 42.8706 109.604 42.8663L103.623 42.9495Z" fill="#FFCC00" stroke="#B79300" stroke-width="0.8"/>
<path d="M62.6829 42.9606L61.0112 42.965C60.5282 42.9661 59.7987 42.7407 59.3196 42.3289C59.6673 41.0734 61.9491 40.7829 62.8964 40.8L62.6829 42.9606Z" fill="#FFCC00" stroke="#B79300" stroke-width="0.8"/>
<path d="M67.1788 42.9751L67.2489 49.1682L60.7478 48.6692C59.7384 48.4988 59.5736 47.9868 59.5476 47.4216L59.2976 43.2412C59.2976 43.2412 59.2569 42.5861 59.2937 42.4117C59.3629 42.084 59.612 42.0017 59.8066 42.2007C60.0501 42.4497 60.6646 42.8962 61.198 42.8919L67.1788 42.9751Z" fill="#FFCC00" stroke="#B79300" stroke-width="0.8"/>
<path fill-rule="evenodd" clip-rule="evenodd" d="M85.2299 12.353C84.1453 12.353 83.1325 12.9359 82.5843 13.8755C79.4324 20.6625 77.9917 20.4459 70.9644 20.6661C69.8917 20.7019 68.9263 21.2846 68.402 22.2003C67.8657 23.128 67.854 24.2695 68.3785 25.1973C72.4878 31.2662 71.8031 32.4019 68.5928 38.4336C68.0923 39.3613 68.1162 40.4909 68.6523 41.4068C69.1886 42.3223 70.1539 42.8934 71.2144 42.9291C78.7734 42.4084 79.2896 43.9412 83.1682 49.9344C83.7403 50.8264 84.6833 51.3496 85.7441 51.3375C86.7929 51.3257 87.8164 50.7667 88.3646 49.8749C91.6472 43.2368 92.8347 43.126 99.722 43.0841C100.807 43.072 101.808 42.4895 102.356 41.5618C102.892 40.6224 102.904 39.4691 102.38 38.5295C98.1507 32.4282 99.2139 31.1936 102.368 24.9358C102.845 23.9965 102.797 22.8785 102.26 21.9864C100.03 23.3678 100.03 23.3676 102.26 21.9864C101.724 21.0826 100.759 20.5237 99.7101 20.4998C92.1092 20.9992 91.4762 19.9402 87.8757 13.8517C87.3275 12.9239 86.3145 12.3531 85.2299 12.3531V12.353ZM85.2418 15.4097C89.1301 21.996 91.3028 24.214 99.6385 23.5566C96.2496 30.2803 94.9588 33.3282 99.6981 40.0157C92.2243 40.0765 89.258 40.9294 85.7441 48.2811V48.2814C81.5962 41.8381 79.6103 39.2137 71.298 39.8734C74.7745 33.3418 75.6696 30.3528 71.0598 23.7231C78.6451 23.485 81.8452 22.9546 85.2418 15.4098V15.4097Z" fill="#FFCC00"/>
<path fill-rule="evenodd" clip-rule="evenodd" d="M85.3286 14.7305C87.8798 21.0564 91.2691 24.4738 99.6374 23.5561C96.2485 30.2798 94.9577 33.3277 99.6971 40.0152C92.2233 40.0761 89.2569 40.929 85.7431 48.2807V48.2809C81.5951 41.8377 79.6093 39.2132 71.297 39.873C74.7734 33.3414 75.6685 30.3523 71.0587 23.7226C78.6441 23.4846 82.2558 22.5777 85.3286 14.7306V14.7305Z" stroke="#B79300" stroke-width="0.8" stroke-linecap="round" stroke-linejoin="round"/>
<path d="M83.1911 42.1177C83.1911 42.1177 83.2122 42.1071 83.2438 42.0966C83.286 42.0755 83.3388 42.0545 83.4126 42.0124C83.5709 41.9387 83.7924 41.8229 84.0667 41.665C84.3516 41.507 84.6786 41.2965 85.0584 41.0438C85.4277 40.7912 85.8391 40.4859 86.2506 40.1174C86.6726 39.7489 87.0945 39.3278 87.506 38.854C87.9069 38.3698 88.2972 37.8223 88.6137 37.2222C88.9302 36.6116 89.1834 35.9484 89.3417 35.2535C89.3628 35.1693 89.3839 35.0746 89.3944 34.9903L89.4366 34.7272C89.4683 34.5482 89.4788 34.3692 89.4999 34.1902L89.5105 34.0534V34.0218C89.5105 34.0218 89.5105 34.0112 89.5105 34.0218V34.0112V33.9902V33.9165L89.521 33.6322C89.5316 33.4427 89.521 33.2638 89.521 33.0743C89.5105 32.3373 89.4366 31.5898 89.3311 30.8634C89.2256 30.137 89.0674 29.4211 88.8986 28.7368C88.5504 27.3682 88.1179 26.1259 87.7065 25.0731C87.295 24.0203 86.8941 23.1571 86.6093 22.5675C86.4616 22.2727 86.3455 22.0411 86.2611 21.8832C86.1767 21.7253 86.1345 21.6411 86.1345 21.6411L86.4194 21.4832C86.4194 21.4832 86.4616 21.5674 86.5565 21.7253C86.6409 21.8832 86.7675 22.1148 86.9152 22.4096C87.2212 22.9992 87.6326 23.8624 88.0757 24.9152C88.5188 25.968 88.983 27.2313 89.3628 28.6105C89.7426 29.9896 90.038 31.5056 90.0907 33.0532C90.0907 33.2427 90.1013 33.4533 90.1013 33.6322V33.9165V33.9902V34.0112V34.0323V34.0639L90.0907 34.2113C90.0802 34.4113 90.0696 34.6008 90.038 34.7903L89.9958 35.0746C89.9747 35.1693 89.9536 35.2641 89.943 35.3588C89.7848 36.1168 89.5316 36.8432 89.194 37.5065C88.8564 38.1592 88.4555 38.7593 88.0335 39.2857C87.6115 39.8121 87.1684 40.2648 86.7359 40.6543C86.3033 41.0438 85.8813 41.3807 85.491 41.6544C85.1006 41.9282 84.7525 42.1493 84.4571 42.3282C84.1617 42.5072 83.9296 42.6335 83.7608 42.7178C83.6764 42.7599 83.6131 42.7914 83.5709 42.8125C83.5287 42.8336 83.497 42.8441 83.497 42.8441L83.4654 42.823C83.2544 42.6862 83.1383 42.4019 83.1911 42.1177H83.1911Z" fill="#FFCC00" stroke="#B79300" stroke-width="0.8" stroke-miterlimit="10" stroke-linejoin="round"/>
<path fill-rule="evenodd" clip-rule="evenodd" d="M85.23 12.3529C84.1455 12.3529 83.1327 12.9357 82.5844 13.8753C79.4326 20.6623 77.9918 20.4457 70.9645 20.6659C69.8918 20.7017 68.9264 21.2843 68.4022 22.2C67.8658 23.1278 67.8541 24.2693 68.3786 25.1971C72.4879 31.266 71.8032 32.4017 68.5929 38.4334C68.0924 39.3611 68.1163 40.4907 68.6524 41.4067C69.1887 42.3221 70.154 42.8932 71.2145 42.9289C78.7735 42.4082 79.2897 43.9411 83.1683 49.9342C83.7404 50.8263 84.7296 51.3494 85.7905 51.3373C86.8392 51.3255 87.8165 50.7665 88.3647 49.8747C91.6473 43.2366 92.8348 43.1258 99.7222 43.0839C100.807 43.0718 101.808 42.4892 102.356 41.5615C102.892 40.6221 102.904 39.4689 102.38 38.5294C98.151 32.4281 99.2141 31.1935 102.368 24.9357C102.845 23.9964 102.797 22.8784 102.261 21.9863V21.986C101.725 21.0822 100.759 20.5233 99.7103 20.4994C92.1094 20.9988 91.4763 19.9398 87.8758 13.8513C87.3276 12.9235 86.3146 12.3528 85.23 12.3528V12.3529Z" stroke="#B79300" stroke-width="0.8"/>
<path d="M83.7392 38.8447V46.0236H85.385H87.0414V38.8447H83.7392Z" fill="#FFCC00" stroke="#B79300" stroke-width="0.8" stroke-miterlimit="10"/>
<path d="M87.028 40.6941L83.7787 41.9048L83.8349 42.1072L87.028 40.9152V40.6941Z" fill="#B79300"/>
<path d="M83.7615 41.0748L87.0003 39.8642V39.6431L83.7615 40.8538V41.0748Z" fill="#B79300"/>
<path d="M81.4716 17.408C81.4716 17.408 86.0519 18.4377 86.2501 22.5337L81.4716 17.408Z" fill="#FFCC00"/>
<path d="M81.4716 17.408C81.4716 17.408 86.0519 18.4377 86.2501 22.5337" stroke="#B79300" stroke-width="0.8" stroke-miterlimit="10"/>
<path d="M86.2507 22.5337C86.2507 22.5376 86.2507 22.5416 86.2517 22.5455C86.2411 22.535 83.3399 23.1667 81.4725 17.408" fill="#B79300"/>
<path d="M86.2507 22.5337C86.2507 22.5376 86.2507 22.5416 86.2517 22.5455C86.2411 22.535 83.3399 23.1667 81.4725 17.408" stroke="#B79300" stroke-width="0.8" stroke-miterlimit="10"/>
<path d="M81.4716 17.408C83.2974 19.2714 84.5586 20.9453 86.0185 22.356L86.2506 22.535" stroke="#B79300" stroke-width="0.8" stroke-miterlimit="10"/>
<path d="M84.415 17.3134L85.3961 14.6467V38.3657H83.7398V32.5366V21.1666C83.7398 19.8506 83.9719 18.5557 84.415 17.3134H84.415Z" fill="#FFCC00"/>
<path d="M86.3775 17.3134L85.3964 14.6467V38.3657H87.0527V32.5366V21.1666C87.0527 19.8506 86.8206 18.5557 86.3775 17.3134H86.3775Z" fill="#B79300"/>
<path d="M87.0283 44.8064L83.7392 46.0229V46.2545L87.0283 45.038V44.8064Z" fill="#B79300"/>
<path d="M87.559 46.9806H83.2336C83.0331 46.9806 82.8643 46.8121 82.8643 46.6121V46.012C82.8643 45.812 83.0331 45.6436 83.2336 45.6436H87.559C87.7595 45.6436 87.9283 45.812 87.9283 46.012V46.6121C87.9283 46.8121 87.7595 46.9806 87.559 46.9806Z" fill="#FFCC00" stroke="#B79300" stroke-width="0.8" stroke-miterlimit="10"/>
<path d="M87.0295 43.7534L83.7751 44.9689V45.2005L87.0295 43.985V43.7534Z" fill="#B79300"/>
<path d="M87.0291 42.7307L83.7717 43.9392V44.1708L87.0291 42.9623V42.7307Z" fill="#B79300"/>
<path d="M87.0287 41.7219L83.764 42.9386V43.1597L87.0287 41.943V41.7219Z" fill="#B79300"/>
<path d="M85.3958 37.674V14.6934" stroke="#B79300" stroke-width="0.8" stroke-miterlimit="10" stroke-linecap="round" stroke-linejoin="round"/>
<path d="M90.3893 33.6657C90.3539 33.676 90.3182 33.6859 90.282 33.6956C90.282 33.6956 90.1769 29.6265 93.5645 27.3918" fill="#FFCC00"/>
<path d="M90.3893 33.6657C90.3539 33.676 90.3182 33.686 90.282 33.6956C90.282 33.6956 90.1769 29.6265 93.5645 27.3918" stroke="#B79300" stroke-width="0.8" stroke-miterlimit="10"/>
<path d="M93.563 27.3916C93.5696 27.3873 93.5762 27.383 93.5828 27.3787C93.5861 27.4035 94.2978 32.5284 90.3879 33.6655" fill="#B79300"/>
<path d="M93.563 27.3916C93.5696 27.3873 93.5762 27.383 93.5828 27.3787C93.5861 27.4035 94.2978 32.5284 90.3879 33.6655" stroke="#B79300" stroke-width="0.8" stroke-miterlimit="10"/>
<path d="M89.9325 19.3032C89.9325 19.3032 92.3063 25.3567 88.9831 27.4623L89.9325 19.3032Z" fill="#B79300"/>
<path d="M89.9325 19.3032C89.9325 19.3032 92.3063 25.3567 88.9831 27.4623" stroke="#B79300" stroke-width="0.8" stroke-miterlimit="10"/>
<path d="M88.9835 27.4623C88.9835 27.4623 87.1056 21.9562 89.933 19.3032L88.9835 27.4623Z" fill="#FFCC00"/>
<path d="M88.9835 27.4623C88.9835 27.4623 87.1056 21.9562 89.933 19.3032" stroke="#B79300" stroke-width="0.8" stroke-miterlimit="10"/>
<path d="M94.5282 34.2341C94.475 34.8087 93.8878 38.9448 87.5914 39.8326L94.5282 34.2341Z" fill="#B79300"/>
<path d="M94.5282 34.2341C94.475 34.8087 93.8878 38.9448 87.5914 39.8326" stroke="#B79300" stroke-width="0.8" stroke-miterlimit="10"/>
<path d="M85.3589 14.8279L84.4146 17.3135C83.9715 18.5558 83.7394 19.8507 83.7394 21.1667V32.5367V38.3659H85.3957H87.052V32.5367V21.1667C87.052 19.8507 86.8199 18.5558 86.3768 17.3135L85.3589 14.8279Z" stroke="#B79300" stroke-width="0.8" stroke-miterlimit="10"/>
<path d="M82.0735 28.042C84.7111 30.2489 87.2595 31.9198 89.7644 33.8849" stroke="black" stroke-width="0.8" stroke-miterlimit="10"/>
<path d="M82.0736 28.042C82.0736 28.042 88.0343 28.6526 89.7539 33.7586C89.7539 33.7579 89.7332 33.7599 89.6937 33.7626" fill="#FFCC00"/>
<path d="M82.0736 28.042C82.0736 28.042 88.0343 28.6526 89.7539 33.7586C89.7539 33.7579 89.7332 33.7599 89.6937 33.7626" stroke="#B79300" stroke-width="0.8" stroke-miterlimit="10"/>
<path d="M89.6937 33.7626C89.1007 33.8035 84.2794 34.0139 82.0736 28.042L89.6937 33.7626Z" fill="#B79300"/>
<path d="M89.6937 33.7626C89.1007 33.8035 84.2794 34.0139 82.0736 28.042" stroke="#B79300" stroke-width="0.8" stroke-miterlimit="10"/>
<path d="M82.0736 28.042C84.7112 30.2489 87.2596 31.9198 89.7645 33.8849" stroke="#B79300" stroke-width="0.8" stroke-miterlimit="10"/>
<path d="M93.573 27.3784C92.467 29.6509 91.4402 31.757 90.2814 33.8846" stroke="#B79300" stroke-width="0.8" stroke-miterlimit="10"/>
<path d="M87.5914 39.8321C87.5914 39.8321 92.5245 35.9223 94.5236 34.2788" stroke="#B79300" stroke-width="0.8" stroke-miterlimit="10"/>
<path d="M88.5611 27.567C86.2978 26.1177 84.0462 24.7297 82.1994 22.7664" stroke="black" stroke-width="0.8" stroke-miterlimit="10"/>
<path d="M89.9325 19.3032C89.6776 22.0518 89.3322 24.8908 88.983 27.1991V27.4623" stroke="#B79300" stroke-width="0.8" stroke-miterlimit="10"/>
<path fill-rule="evenodd" clip-rule="evenodd" d="M67.3525 42.95L63.5596 48.8874C69.2235 56.1935 76.1254 59.7912 85.378 59.7261C94.6306 59.7912 101.533 56.1935 107.197 48.8874L103.404 42.95C100.594 49.1285 93.5378 53.6719 85.378 53.6419C77.2183 53.6718 70.162 49.1284 67.3525 42.95Z" fill="#FFCC00" stroke="#B79300" stroke-width="0.8" stroke-linecap="round" stroke-linejoin="round"/>
<path d="M88.3756 27.5011C87.8467 27.6407 83.7099 28.1845 82.0287 22.5781L88.3756 27.5011Z" fill="#B79300"/>
<path d="M88.3756 27.5011C87.8467 27.6407 83.7099 28.1845 82.0287 22.5781" stroke="#B79300" stroke-width="0.8" stroke-miterlimit="10"/>
<path d="M82.0287 22.5781C82.0287 22.5781 86.9934 23.1036 88.4258 27.4976C88.4258 27.497 88.4085 27.4987 88.3756 27.5011" fill="#FFCC00"/>
<path d="M82.0287 22.5781C82.0287 22.5781 86.9934 23.1036 88.4258 27.4976C88.4258 27.497 88.4085 27.4987 88.3756 27.5011" stroke="#B79300" stroke-width="0.8" stroke-miterlimit="10"/>
<path d="M82.0287 22.5781C84.2256 24.4773 86.3482 25.9152 88.4345 27.6063" stroke="#B79300" stroke-width="0.8" stroke-miterlimit="10"/>
<path d="M85.3959 39.5484L83.7499 39.9801L81.4819 38.5693L85.3959 38.5952" fill="#B79300"/>
<path d="M85.3959 39.5484L83.7499 39.9801L81.4819 38.5693L85.3959 38.5952" stroke="#B79300" stroke-width="0.8" stroke-miterlimit="10" stroke-linecap="round" stroke-linejoin="round"/>
<path d="M85.3961 39.5493L87.2106 39.981L89.0761 38.5718L85.3961 38.5961" fill="#B79300"/>
<path d="M85.3961 39.5493L87.2106 39.981L89.0761 38.5718L85.3961 38.5961" stroke="#B79300" stroke-width="0.8" stroke-miterlimit="10" stroke-linecap="round" stroke-linejoin="round"/>
<path d="M81.5261 38.5691H88.4002" stroke="black" stroke-width="0.8" stroke-miterlimit="10"/>
<path d="M85.3961 38.5953L89.0761 38.571L87.0522 37.0588L85.3961 37.4905" fill="#FFCC00"/>
<path d="M85.3961 38.5953L89.0761 38.571L87.0522 37.0588L85.3961 37.4905" stroke="#B79300" stroke-width="0.8" stroke-miterlimit="10" stroke-linecap="round" stroke-linejoin="round"/>
<path d="M85.3959 38.5953L81.4819 38.5694L83.7395 37.0588L85.3959 37.4905" fill="#FFCC00"/>
<path d="M85.3959 38.5953L81.4819 38.5694L83.7395 37.0588L85.3959 37.4905" stroke="#B79300" stroke-width="0.8" stroke-miterlimit="10" stroke-linecap="round" stroke-linejoin="round"/>
<path d="M87.5913 39.8322C87.566 39.8259 90.0235 35.0092 94.5332 34.1682C94.5332 34.1726 94.5317 34.1951 94.5281 34.2338" fill="#FFCC00"/>
<path d="M87.5913 39.8322C87.566 39.8259 90.0235 35.0092 94.5332 34.1682C94.5332 34.1726 94.5317 34.1951 94.5281 34.2338" stroke="#B79300" stroke-width="0.8" stroke-miterlimit="10"/>
<path d="M83.1911 42.1165C83.1911 42.1165 83.2122 42.106 83.2438 42.0955C83.286 42.0744 83.3388 42.0534 83.4126 42.0113C83.5709 41.9376 83.7924 41.8218 84.0667 41.6639C84.3516 41.5059 84.6786 41.2954 85.0584 41.0427C85.4277 40.79 85.8391 40.4847 86.2506 40.1163C86.6726 39.7478 87.0945 39.3267 87.506 38.8529C87.9069 38.3686 88.2972 37.8212 88.6137 37.2211C88.9302 36.6105 89.1834 35.9472 89.3417 35.2524C89.3628 35.1682 89.3839 35.0734 89.3944 34.9892L89.4366 34.726C89.4683 34.5471 89.4788 34.3681 89.4999 34.1891L89.5105 34.0522V34.0206C89.5105 34.0206 89.5105 34.0101 89.5105 34.0206V34.0101V33.989V33.9154L89.521 33.6311C89.5316 33.4416 89.521 33.2626 89.521 33.0731C89.5105 32.3362 89.4366 31.5887 89.3311 30.8623C89.2256 30.1359 88.9676 29.0667 88.7988 28.3824L89.263 28.2561C89.6428 29.6352 90.038 31.5045 90.0907 33.0521C90.0907 33.2416 90.1013 33.4521 90.1013 33.6311V33.9154V33.989V34.0101V34.0312V34.0628L90.0907 34.2102C90.0802 34.4102 90.0696 34.5997 90.038 34.7892L89.9958 35.0734C89.9747 35.1682 89.9536 35.2629 89.943 35.3577C89.7848 36.1157 89.5316 36.8421 89.194 37.5054C88.8564 38.1581 88.4555 38.7582 88.0335 39.2846C87.6115 39.811 87.1684 40.2637 86.7359 40.6532C86.3033 41.0427 85.8813 41.3796 85.491 41.6533C85.1006 41.927 84.7525 42.1481 84.4571 42.3271C84.1617 42.5061 83.9296 42.6324 83.7608 42.7166C83.6764 42.7587 83.6131 42.7903 83.5709 42.8114C83.5287 42.8324 83.497 42.843 83.497 42.843L83.4654 42.8219C83.2544 42.6851 83.1383 42.4008 83.1911 42.1165H83.1911Z" fill="#B79300" stroke="#B79300" stroke-width="0.8" stroke-miterlimit="10" stroke-linejoin="round"/>
<path d="M88.8772 27.1463C89.1831 27.1463 89.4363 27.399 89.4363 27.7043C89.4363 28.0096 89.1831 28.2623 88.8772 28.2623C88.5712 28.2623 88.318 28.0096 88.318 27.7043C88.318 27.399 88.5712 27.1463 88.8772 27.1463ZM88.8772 26.9358C88.4446 26.9358 88.107 27.2832 88.107 27.7043C88.107 28.136 88.4552 28.4728 88.8772 28.4728C89.2992 28.4728 89.6473 28.1254 89.6473 27.7043C89.6473 27.2832 89.3097 26.9358 88.8772 26.9358Z" fill="#B79300"/>
<path d="M88.8772 28.3783C88.5079 28.3783 88.2125 28.0835 88.2125 27.715C88.2125 27.3465 88.5079 27.0518 88.8772 27.0518C89.2464 27.0518 89.5418 27.3465 89.5418 27.715C89.5418 28.0835 89.2464 28.3783 88.8772 28.3783Z" fill="url(#paint2_radial_580_1833)"/>
<path d="M89.7535 33.2953C90.0805 33.2953 90.3548 33.5585 90.3548 33.8954C90.3548 34.2217 90.0911 34.4954 89.7535 34.4954C89.4264 34.4954 89.1521 34.2322 89.1521 33.8954C89.1627 33.5585 89.4264 33.2953 89.7535 33.2953ZM89.7535 33.0847C89.3104 33.0847 88.9411 33.4427 88.9411 33.8954C88.9411 34.3375 89.2998 34.706 89.7535 34.706C90.1966 34.706 90.5658 34.3481 90.5658 33.8954C90.5658 33.4427 90.2071 33.0847 89.7535 33.0847Z" fill="#B79300"/>
<path d="M89.7533 34.5904C89.363 34.5904 89.0465 34.2746 89.0465 33.885C89.0465 33.4955 89.363 33.1797 89.7533 33.1797C90.1437 33.1797 90.4601 33.4955 90.4601 33.885C90.4601 34.2746 90.1437 34.5904 89.7533 34.5904Z" fill="url(#paint3_radial_580_1833)"/>
<path d="M87.4947 57.2227C87.7073 57.2012 87.9197 57.1773 88.1319 57.1511C88.4356 57.1135 88.5541 56.9853 88.4749 56.6949C88.4053 56.4397 88.3367 56.1843 88.2691 55.9287C88.2575 55.8915 88.2301 55.8756 88.1869 55.8808C87.9747 55.906 87.7622 55.9288 87.5494 55.9493C87.643 55.6831 87.7332 55.4165 87.8201 55.1495C88.1218 55.1167 88.4228 55.079 88.7226 55.0361C88.808 55.0239 88.868 55.0307 88.9029 55.0572C88.9391 55.0817 88.97 55.1377 88.9956 55.2254C89.2195 55.9854 89.4528 56.7431 89.6956 57.4983C89.4357 57.6493 89.1721 57.7966 88.9051 57.9402C88.809 57.6669 88.7147 57.3931 88.622 57.1189C88.5193 57.3923 88.4128 57.6652 88.3026 57.9375C87.9549 57.98 87.6069 58.0162 87.2587 58.0464C87.34 57.7722 87.4187 57.4976 87.4947 57.2227Z" fill="#B79300"/>
<path d="M78.7473 53.8012C78.4946 53.856 78.239 53.9052 77.9803 53.9482C77.8667 54.2696 77.753 54.591 77.6393 54.9123C77.6236 54.9362 77.6312 54.9536 77.6621 54.9643C78.1178 55.1223 78.58 55.2619 79.0474 55.3843L78.709 56.6702C78.4385 56.5991 78.1693 56.5226 77.9016 56.4404C77.7386 56.6464 77.5725 56.8508 77.4031 57.0533C77.9346 57.2246 78.4714 57.3743 79.0117 57.5036C79.2062 57.3497 79.3969 57.1931 79.584 57.0342L80.0159 55.04C80.0482 54.8909 79.9746 54.8205 79.8593 54.7945C79.4174 54.6949 78.9803 54.58 78.5493 54.4489C78.6153 54.233 78.6813 54.0171 78.7473 53.8012Z" fill="#B79300"/>
<path d="M97.3032 52.4167C97.3564 52.1791 97.405 51.9419 97.449 51.7052C98.0915 51.8997 98.7536 52.0658 99.4323 52.2036C99.4659 52.2068 99.4731 52.1948 99.4529 52.1687C99.3242 51.9972 99.1954 51.8256 99.0667 51.6541C98.9689 51.7272 98.8706 51.7995 98.7717 51.8711C98.7011 51.607 98.6273 51.3442 98.5506 51.0828C98.6358 51.0195 98.7206 50.9554 98.8049 50.8908C98.8899 50.8257 98.9744 50.7599 99.0585 50.6935C99.1702 50.6054 99.272 50.6199 99.3644 50.74C99.5682 51.0025 99.7718 51.265 99.9752 51.5277C100.015 51.5826 100.022 51.6338 99.996 51.6813C99.8938 51.8691 99.7885 52.0562 99.6801 52.2425C100.073 52.3235 100.472 52.3951 100.876 52.4575C100.784 52.7032 100.687 52.9488 100.586 53.1942C99.8356 53.0656 99.1026 52.9051 98.3909 52.7122C98.3509 52.7035 98.341 52.7143 98.3615 52.7445C98.5187 52.9819 98.676 53.2193 98.8331 53.4567C98.9548 53.3755 99.0757 53.2931 99.1958 53.2097C99.2891 53.441 99.3809 53.673 99.4711 53.9058C99.19 54.098 98.9047 54.2845 98.6152 54.4652C98.5717 54.4923 98.5339 54.4799 98.5018 54.4284L97.8134 53.3223C97.7813 53.2707 97.7787 53.2295 97.8054 53.1986C97.8996 53.0154 97.9906 52.8318 98.0784 52.6479C97.8169 52.5753 97.5585 52.4982 97.3032 52.4167L97.3032 52.4167Z" fill="#B79300"/>
<path d="M93.2059 56.9984L92.7769 55.6126L92.7546 55.5405C92.7573 55.5251 92.7724 55.5078 92.7997 55.4883C93.0392 55.3493 93.2751 55.2064 93.5073 55.0596L93.99 56.4303C93.7337 56.624 93.4722 56.8134 93.2059 56.9984Z" fill="#B79300"/>
<path d="M92.5514 54.1721C92.821 54.0862 93.0886 53.995 93.354 53.8984C93.7063 53.7702 94.0547 53.6323 94.3985 53.4846C94.6332 53.3837 94.8046 53.448 94.9133 53.6879L95.8252 55.7008C95.5717 55.922 95.312 56.1384 95.0465 56.35L94.2826 54.4497C94.2625 54.3997 94.2186 54.3884 94.1511 54.415C93.6282 54.6214 93.097 54.8067 92.5592 54.9719C92.5593 54.7049 92.5567 54.4383 92.5514 54.1721Z" fill="#B79300"/>
<path d="M89.9939 57.7708L89.7423 56.3389L89.7293 56.2644C89.7339 56.2495 89.7511 56.2341 89.7807 56.2182C90.0361 56.1102 90.2888 55.9984 90.5386 55.883L90.8385 57.3071C90.561 57.4661 90.2793 57.6206 89.9939 57.7708Z" fill="#B79300"/>
<path d="M89.7008 54.8781C89.9816 54.8268 90.2612 54.7708 90.5393 54.7098C90.9085 54.6289 91.2751 54.5394 91.6386 54.4408C91.8868 54.3735 92.0481 54.4616 92.1217 54.7138L92.7399 56.8317C92.4609 57.0152 92.1768 57.1939 91.888 57.3677L91.3892 55.3808C91.3761 55.3285 91.3341 55.3113 91.2634 55.3287C90.7158 55.4627 90.1629 55.5776 89.6061 55.6744C89.64 55.4088 89.6716 55.1434 89.7008 54.8781Z" fill="#B79300"/>
<path d="M99.696 50.1722C99.8034 50.4166 99.9086 50.6623 100.012 50.9093C100.35 50.6279 100.682 50.337 101.006 50.0375C101.022 50.0219 101.039 50.0064 101.056 49.9908C101.1 49.9493 101.142 49.9493 101.182 49.9913L101.712 50.5549C101.857 50.7099 101.977 50.8317 102.063 50.9131C101.684 51.268 101.294 51.612 100.894 51.944C100.972 52.1876 101.047 52.4325 101.119 52.6786C101.864 52.0757 102.574 51.4328 103.248 50.7566C103.16 50.5091 103.069 50.263 102.975 50.0186C102.858 50.1396 102.739 50.2596 102.619 50.3785C102.314 50.6804 102.623 50.1873 102.391 49.9563L101.376 48.9477C101.262 48.8345 101.134 48.8498 101.045 48.9371C100.61 49.366 100.16 49.7785 99.696 50.1722L99.696 50.1722Z" fill="#B79300"/>
<path d="M103.466 50.5345C103.378 50.2954 103.286 50.0578 103.193 49.8217C103.556 49.441 103.907 49.0503 104.247 48.6507C103.982 48.7014 103.576 48.7119 103.105 48.7312C102.975 48.7343 102.727 48.7165 102.377 48.67C102.264 48.7912 102.15 48.9114 102.034 49.0305C101.937 48.763 101.836 48.4974 101.732 48.2339C101.886 48.07 102.038 47.904 102.188 47.7361C102.223 47.697 102.273 47.6923 102.337 47.7221C102.624 47.8459 102.911 47.9133 103.198 47.9219C103.353 47.9246 103.574 47.9126 103.856 47.8813C103.915 47.8777 103.919 47.854 103.867 47.8108L103.441 47.4596C103.377 47.5367 103.313 47.6134 103.248 47.6898C103.121 47.4436 102.991 47.1994 102.859 46.957C102.997 46.7913 103.132 46.624 103.266 46.4552C103.358 46.3386 103.463 46.327 103.581 46.4224C103.828 46.6265 104.075 46.8308 104.321 47.0354C104.256 47.3084 104.186 47.5819 104.111 47.8558C104.403 47.8242 104.736 47.7806 105.077 47.6941C105.164 47.9353 105.249 48.1783 105.331 48.4232C104.746 49.1544 104.124 49.8603 103.466 50.5345L103.466 50.5345Z" fill="#B79300"/>
<path d="M85.1781 58.1519C85.2142 57.9057 85.2493 57.6595 85.2833 57.4133C85.3328 57.4123 85.3823 57.4112 85.4317 57.4099C85.6579 57.405 85.8843 57.3976 86.1107 57.3877L86.0509 56.0551C85.9075 56.0615 85.764 56.067 85.6205 56.0714C85.6585 55.8144 85.6955 55.5573 85.7312 55.3001C86.0429 55.2887 86.3543 55.2727 86.6652 55.2517C86.7857 55.2435 86.8779 55.2904 86.8893 55.4429L87.0538 57.6423C86.9167 57.7954 86.7774 57.9476 86.6362 58.0988C86.2401 58.1221 85.8443 58.1378 85.449 58.146C85.3588 58.1484 85.2685 58.1504 85.1781 58.1519L85.1781 58.1519Z" fill="#B79300"/>
<path d="M76.2285 54.3951C76.3746 54.1805 76.5188 53.9651 76.6612 53.7487C76.9006 53.8547 77.1427 53.9547 77.3872 54.049C77.5681 54.1186 77.6292 54.2375 77.5659 54.4106L77.5569 54.435C77.4335 54.7732 77.3101 55.1114 77.1867 55.4497C76.8804 55.4415 76.5719 55.4254 76.2614 55.4009L76.6143 54.5629C76.485 54.5085 76.3564 54.4526 76.2285 54.3951L76.2285 54.3951Z" fill="#B79300"/>
<path d="M73.2331 51.8108C72.9916 51.9552 72.7475 52.0969 72.5011 52.236C72.6052 52.3099 72.7099 52.3829 72.8151 52.4552C72.4725 53.0801 72.135 53.7081 71.8028 54.3392C72.3162 54.6709 72.8426 54.9865 73.3822 55.2829C73.8963 55.5663 74.3059 55.6698 74.5805 55.623C74.7827 55.5927 74.9973 55.438 75.223 55.1589C75.5881 54.7109 75.9443 54.257 76.2912 53.7972C76.3029 53.7796 76.3119 53.7637 76.3185 53.7495C76.3581 53.6641 76.3255 53.5978 76.222 53.5489C75.9564 53.4236 75.6935 53.2916 75.4331 53.1535C75.2432 53.3421 75.0508 53.5288 74.856 53.7137C74.9678 53.7747 75.0802 53.8347 75.193 53.8936C74.948 54.1688 74.6991 54.4413 74.4465 54.7111C74.3874 54.782 74.3234 54.8156 74.2543 54.8117C74.1627 54.8151 74.0228 54.7687 73.8369 54.6715C73.5232 54.508 73.2133 54.3374 72.9074 54.1605C72.9702 54.0467 73.0331 53.9329 73.0961 53.8192C73.3057 53.9369 73.5169 54.0516 73.7297 54.163C73.8309 54.2161 73.9218 54.2179 74 54.1726C74.4153 53.8017 74.8212 53.4233 75.2168 53.037C74.9396 52.8856 74.6654 52.7273 74.3941 52.5629C74.1622 52.7214 73.9273 52.877 73.6895 53.0299C73.7974 53.0976 73.9059 53.1643 74.0149 53.2302C74.0166 53.2294 74.0183 53.2286 74.02 53.2278C73.889 53.3437 73.7571 53.4588 73.6243 53.5732C73.4957 53.6733 73.4013 53.6496 73.2474 53.5574C73.4506 53.1812 73.6551 52.8057 73.8609 52.4311C73.9176 52.333 73.8947 52.2516 73.7933 52.1857C73.6051 52.0635 73.4184 51.9385 73.2331 51.8108L73.2331 51.8108Z" fill="#B79300"/>
<path d="M71.1675 50.2409C71.2695 50.3256 71.372 50.4097 71.4749 50.493C71.6234 50.6133 71.7728 50.7321 71.9233 50.8494C72.0737 50.9665 72.225 51.0821 72.3774 51.1961C72.5856 51.3518 72.615 51.5341 72.4597 51.7468L71.1557 53.5336C70.8416 53.4269 70.5286 53.3144 70.2171 53.1967L71.4777 51.5775C71.5091 51.5372 71.4996 51.4959 71.4497 51.4535C71.4469 51.4511 71.4439 51.4487 71.4408 51.4463C71.1203 51.196 70.8047 50.9395 70.4935 50.6773C70.7194 50.5332 70.9441 50.3877 71.1675 50.2409L71.1675 50.2409Z" fill="#B79300"/>
<path d="M82.0804 58.0857L82.2274 56.6384L82.235 56.5631C82.2435 56.55 82.2643 56.5398 82.2972 56.5325C82.5727 56.4977 82.8467 56.458 83.1189 56.4137L83.024 57.8686C82.7129 57.9469 82.3983 58.0194 82.0804 58.0857Z" fill="#B79300"/>
<path d="M82.583 55.2184C82.8664 55.2442 83.1507 55.2647 83.4356 55.2803C83.8137 55.3009 84.1929 55.3128 84.5723 55.3164C84.8316 55.3188 84.9637 55.4481 84.9657 55.7113L84.9816 57.9223C84.6648 58.0236 84.344 58.1194 84.0193 58.2092L84.0754 56.1564C84.0768 56.1023 84.0409 56.0745 83.9679 56.0721C83.4026 56.0542 82.838 56.0174 82.2763 55.9603C82.3811 55.7137 82.4833 55.4664 82.583 55.2184Z" fill="#B79300"/>
<path d="M68.029 46.3313C67.7706 46.2425 67.5119 46.1512 67.2531 46.0578C67.0005 46.2886 66.7479 46.5195 66.4954 46.7503C66.4701 46.764 66.4687 46.7831 66.4914 46.8075C66.8241 47.1671 67.1609 47.5228 67.5024 47.8735L66.544 48.8028C66.3543 48.608 66.1662 48.4118 65.9798 48.2146C65.7375 48.316 65.4946 48.4165 65.2512 48.5161C65.6117 48.9012 65.9784 49.2828 66.3522 49.6596C66.5945 49.6262 66.8363 49.5912 67.0773 49.5547L68.5208 48.104C68.6286 47.9956 68.603 47.8945 68.5164 47.8079C68.185 47.4764 67.8578 47.1394 67.5343 46.7979C67.6992 46.6424 67.8641 46.4868 68.0291 46.3313L68.029 46.3313Z" fill="#B79300"/>
<path d="M68.6014 48.4533C68.8482 48.4511 69.0941 48.4467 69.339 48.4401C69.3012 49.1188 69.2793 49.8028 69.277 50.4931C69.2804 50.5265 69.2935 50.5311 69.3153 50.5063C69.4584 50.3462 69.6016 50.1862 69.7448 50.0261C69.653 49.9444 69.5617 49.8621 69.4707 49.7795C69.7161 49.6568 69.9604 49.5326 70.2033 49.4068C70.2841 49.479 70.3651 49.5509 70.4464 49.6224C70.5283 49.6944 70.6105 49.7659 70.693 49.8371C70.8026 49.9316 70.8077 50.035 70.7067 50.1478C70.4861 50.3965 70.2654 50.645 70.0446 50.8934C69.998 50.9428 69.9489 50.9593 69.8974 50.9427C69.6938 50.8781 69.4903 50.8114 69.2868 50.7427C69.2828 51.1423 69.2854 51.5441 69.2953 51.9482C69.039 51.9063 68.7824 51.8614 68.5254 51.8138C68.5158 51.063 68.5298 50.3201 68.5634 49.5841C68.5633 49.5432 68.5505 49.5359 68.5254 49.5625C68.3275 49.7683 68.1296 49.974 67.9317 50.1797C68.036 50.2784 68.1409 50.3767 68.2463 50.4745C68.0399 50.6154 67.8329 50.7556 67.6253 50.8951C67.384 50.6697 67.1456 50.4418 66.91 50.2119C66.8747 50.1774 66.8784 50.1384 66.9212 50.095L67.8378 49.1635C67.8805 49.12 67.9201 49.1076 67.9564 49.1261C68.1569 49.174 68.3572 49.2203 68.5572 49.265C68.5694 48.9935 68.5842 48.723 68.6014 48.4533Z" fill="#B79300"/>
</g>
<defs>
<radialGradient id="paint0_radial_580_1833" cx="0" cy="0" r="1" gradientUnits="userSpaceOnUse" gradientTransform="translate(88.4534 27.4777) rotate(84.7245) scale(1.51552 1.63211)">
<stop stop-color="#FFCC00"/>
<stop offset="1" stop-color="#B79300"/>
</radialGradient>
<radialGradient id="paint1_radial_580_1833" cx="0" cy="0" r="1" gradientUnits="userSpaceOnUse" gradientTransform="translate(89.7185 33.6578) rotate(95.7868) scale(1.04082 1.20269)">
<stop stop-color="#FFCC00"/>
<stop offset="1" stop-color="#B79300"/>
</radialGradient>
<radialGradient id="paint2_radial_580_1833" cx="0" cy="0" r="1" gradientUnits="userSpaceOnUse" gradientTransform="translate(88.4534 27.4777) rotate(84.7245) scale(1.51552 1.63211)">
<stop stop-color="#FFCC00"/>
<stop offset="1" stop-color="#B79300"/>
</radialGradient>
<radialGradient id="paint3_radial_580_1833" cx="0" cy="0" r="1" gradientUnits="userSpaceOnUse" gradientTransform="translate(89.7185 33.6578) rotate(95.7868) scale(1.04082 1.20269)">
<stop stop-color="#FFCC00"/>
<stop offset="1" stop-color="#B79300"/>
</radialGradient>
<clipPath id="clip0_580_1833">
<rect width="52.8" height="48" fill="white" transform="translate(59 12)"/>
</clipPath>
</defs>
</svg>
