<svg width="25" height="24" viewBox="0 0 25 24" fill="none" xmlns="http://www.w3.org/2000/svg">
<rect x="1" y="0.5" width="23" height="23" rx="11.5" stroke="#515458"/>
<path d="M17.262 16.4968C16.6869 16.4831 16.1255 16.4831 15.5504 16.4968C15.4271 16.4968 15.3998 16.4694 15.3998 16.3462C15.3998 15.3329 15.3998 14.306 15.3998 13.2927C15.3998 13.0599 15.3861 12.8271 15.3176 12.6081C15.1122 11.896 14.2906 11.6359 13.7018 12.1151C13.3869 12.3616 13.2637 12.7039 13.2637 13.1147C13.2637 14.0732 13.2637 15.0317 13.2637 15.9902C13.2637 16.1134 13.25 16.2367 13.2637 16.3736C13.2774 16.4831 13.2226 16.5105 13.1267 16.4968C12.5379 16.4968 11.9628 16.4968 11.3741 16.4968C11.2645 16.4968 11.2371 16.4694 11.2371 16.3599C11.2508 15.4972 11.2508 14.6346 11.2508 13.7583C11.2508 12.6902 11.2508 11.6222 11.2371 10.5678C11.2371 10.4446 11.2645 10.4172 11.3741 10.4172C11.9628 10.4172 12.5379 10.4172 13.1267 10.4172C13.2363 10.4172 13.2637 10.4446 13.2637 10.5541C13.2637 10.7732 13.2637 10.9923 13.2637 11.2525C13.3047 11.2114 13.3184 11.1977 13.3321 11.184C13.8662 10.4035 14.6193 10.1844 15.5093 10.3214C16.5363 10.4857 17.1935 11.1977 17.3578 12.2931C17.3989 12.5533 17.4126 12.8134 17.4126 13.0736C17.4126 14.169 17.4126 15.2508 17.4126 16.3462C17.4126 16.4557 17.3852 16.4968 17.262 16.4968Z" fill="#515458"/>
<path d="M10.1412 13.4568C10.1412 14.4153 10.1412 15.3738 10.1412 16.3323C10.1412 16.4556 10.1138 16.4966 9.99059 16.4966C9.41549 16.4829 8.84039 16.4966 8.26529 16.4966C8.15574 16.4966 8.12836 16.4692 8.12836 16.3597C8.12836 14.429 8.12836 12.4846 8.12836 10.5539C8.12836 10.4581 8.15574 10.417 8.26529 10.417C8.85408 10.417 9.44287 10.417 10.0317 10.417C10.1549 10.417 10.1686 10.4581 10.1686 10.5676C10.1412 11.5261 10.1412 12.4846 10.1412 13.4568Z" fill="#515458"/>
<path d="M10.2385 8.82875C10.1016 9.37647 9.54014 9.69141 8.89658 9.58186C8.21193 9.47232 7.82853 8.80137 8.07501 8.14411C8.23932 7.73332 8.63641 7.48685 9.14305 7.50054C9.90985 7.48685 10.4165 8.10303 10.2385 8.82875Z" fill="#515458"/>
</svg>
