<svg width="40" height="40" viewBox="0 0 40 40" fill="none" xmlns="http://www.w3.org/2000/svg">
<path d="M38.5714 30V35.7143C38.5714 36.472 38.2704 37.1988 37.7346 37.7346C37.1988 38.2704 36.472 38.5714 35.7143 38.5714H30" stroke="#FF9752" stroke-width="3" stroke-linecap="round" stroke-linejoin="round"/>
<path d="M30 1.42871H35.7143C36.472 1.42871 37.1988 1.72973 37.7346 2.26555C38.2704 2.80137 38.5714 3.52809 38.5714 4.28585V10.0001" stroke="#FF9752" stroke-width="3" stroke-linecap="round" stroke-linejoin="round"/>
<path d="M1.42865 10.0001V4.28585C1.42865 3.52809 1.72967 2.80137 2.26549 2.26555C2.80131 1.72973 3.52803 1.42871 4.28579 1.42871H10.0001" stroke="#FF9752" stroke-width="3" stroke-linecap="round" stroke-linejoin="round"/>
<path d="M10.0001 38.5714H4.28579C3.52803 38.5714 2.80131 38.2704 2.26549 37.7346C1.72967 37.1988 1.42865 36.472 1.42865 35.7143V30" stroke="#FF9752" stroke-width="3" stroke-linecap="round" stroke-linejoin="round"/>
<path d="M20.0001 18.5716C23.156 18.5716 25.7143 16.0133 25.7143 12.8574C25.7143 9.70144 23.156 7.14307 20.0001 7.14307C16.8441 7.14307 14.2858 9.70144 14.2858 12.8574C14.2858 16.0133 16.8441 18.5716 20.0001 18.5716Z" stroke="#FF9752" stroke-width="3" stroke-linecap="round" stroke-linejoin="round"/>
<path d="M29.0287 29.9999C28.2162 28.2937 26.9369 26.8526 25.3389 25.8437C23.741 24.8348 21.8899 24.2993 20.0001 24.2993C18.1103 24.2993 16.2592 24.8348 14.6613 25.8437C13.0634 26.8526 11.7841 28.2937 10.9716 29.9999" stroke="#FF9752" stroke-width="3" stroke-linecap="round" stroke-linejoin="round"/>
</svg>
