<svg width="40" height="40" viewBox="0 0 40 40" fill="none" xmlns="http://www.w3.org/2000/svg">
<path d="M7.85713 26.4289C11.4075 26.4289 14.2857 23.5508 14.2857 20.0003C14.2857 16.4499 11.4075 13.5718 7.85713 13.5718C4.30673 13.5718 1.42856 16.4499 1.42856 20.0003C1.42856 23.5508 4.30673 26.4289 7.85713 26.4289Z" stroke="#0070F0" stroke-width="2.5" stroke-linecap="round" stroke-linejoin="round"/>
<path d="M32.1428 38.5715C35.6932 38.5715 38.5714 35.6933 38.5714 32.1429C38.5714 28.5925 35.6932 25.7144 32.1428 25.7144C28.5924 25.7144 25.7143 28.5925 25.7143 32.1429C25.7143 35.6933 28.5924 38.5715 32.1428 38.5715Z" stroke="#0070F0" stroke-width="2.5" stroke-linecap="round" stroke-linejoin="round"/>
<path d="M32.1428 14.2859C35.6932 14.2859 38.5714 11.4077 38.5714 7.85728C38.5714 4.30688 35.6932 1.42871 32.1428 1.42871C28.5924 1.42871 25.7143 4.30688 25.7143 7.85728C25.7143 11.4077 28.5924 14.2859 32.1428 14.2859Z" stroke="#0070F0" stroke-width="2.5" stroke-linecap="round" stroke-linejoin="round"/>
<path d="M13.6 17.1429L26.4 10.7144" stroke="#0070F0" stroke-width="2.5" stroke-linecap="round" stroke-linejoin="round"/>
<path d="M13.6 22.8574L26.4 29.286" stroke="#0070F0" stroke-width="2.5" stroke-linecap="round" stroke-linejoin="round"/>
</svg>
