<svg width="170" height="72" viewBox="0 0 170 72" fill="none" xmlns="http://www.w3.org/2000/svg">
<g clip-path="url(#clip0_580_1782)">
<path d="M143.001 34.8576V32.8816H140.467V29.8096L140.382 29.835L138.003 30.5402L137.956 30.554V32.8817H134.2V31.585C134.2 30.9812 134.339 30.5192 134.614 30.211C134.887 29.9066 135.277 29.7518 135.775 29.7518C136.133 29.7518 136.503 29.8334 136.876 29.9944L136.969 30.0348V27.9538L136.925 27.9382C136.577 27.8171 136.104 27.7561 135.518 27.7561C134.779 27.7561 134.108 27.9119 133.522 28.2205C132.936 28.5297 132.476 28.9709 132.153 29.532C131.831 30.0924 131.668 30.7397 131.668 31.456V32.8816H129.904V34.8576H131.668V43.1822H134.2V34.8576H137.956V40.1477C137.956 42.3264 139.017 43.4305 141.109 43.4305C141.453 43.4305 141.815 43.3915 142.184 43.3151C142.561 43.2366 142.817 43.1582 142.968 43.0746L143.001 43.0554V41.0612L142.898 41.1271C142.76 41.2158 142.589 41.2883 142.389 41.3422C142.187 41.3971 142.019 41.4246 141.888 41.4246C141.398 41.4246 141.036 41.2967 140.811 41.0442C140.583 40.7894 140.468 40.3439 140.468 39.7207V34.8576H143.001ZM124.249 41.4249C123.33 41.4249 122.605 41.1297 122.094 40.5482C121.58 39.9638 121.32 39.1306 121.32 38.0719C121.32 36.9797 121.58 36.1248 122.094 35.5301C122.605 34.9392 123.323 34.6393 124.228 34.6393C125.106 34.6393 125.805 34.9257 126.306 35.491C126.809 36.0593 127.064 36.9073 127.064 38.0122C127.064 39.1308 126.824 39.99 126.351 40.5648C125.88 41.1352 125.173 41.4249 124.249 41.4249ZM124.361 32.6334C122.608 32.6334 121.215 33.1311 120.222 34.1127C119.229 35.0944 118.726 36.453 118.726 38.1509C118.726 39.7637 119.217 41.0609 120.186 42.006C121.155 42.9514 122.474 43.4303 124.105 43.4303C125.805 43.4303 127.17 42.9256 128.162 41.9305C129.155 40.9364 129.658 39.5907 129.658 37.9324C129.658 36.2944 129.186 34.9875 128.255 34.0487C127.323 33.1095 126.013 32.6334 124.361 32.6334ZM114.643 32.6334C113.451 32.6334 112.464 32.929 111.71 33.5117C110.952 34.0978 110.567 34.8666 110.567 35.7969C110.567 36.2805 110.65 36.71 110.814 37.0743C110.978 37.4399 111.232 37.7617 111.57 38.0318C111.906 38.2997 112.423 38.5804 113.11 38.8659C113.686 39.0958 114.116 39.2902 114.39 39.4435C114.657 39.5937 114.846 39.7447 114.953 39.8917C115.057 40.0356 115.11 40.2326 115.11 40.4756C115.11 41.1677 114.575 41.5044 113.474 41.5044C113.066 41.5044 112.6 41.4218 112.09 41.259C111.583 41.0986 111.105 40.8638 110.672 40.5627L110.567 40.4897V42.8512L110.606 42.8686C110.964 43.0288 111.416 43.1639 111.948 43.2702C112.479 43.3766 112.962 43.4307 113.382 43.4307C114.676 43.4307 115.719 43.1338 116.479 42.5476C117.244 41.9574 117.632 41.1705 117.632 40.208C117.632 39.5137 117.424 38.9183 117.012 38.4381C116.603 37.9618 115.894 37.5245 114.904 37.138C114.116 36.8315 113.611 36.5771 113.402 36.3818C113.201 36.1931 113.099 35.9262 113.099 35.5883C113.099 35.2888 113.225 35.0488 113.484 34.8544C113.744 34.6591 114.107 34.5598 114.561 34.5598C114.983 34.5598 115.415 34.6243 115.844 34.7508C116.273 34.8774 116.65 35.0468 116.965 35.2541L117.068 35.3226V33.0824L117.028 33.0659C116.738 32.9454 116.356 32.8422 115.891 32.7585C115.428 32.6754 115.008 32.6334 114.643 32.6334ZM103.966 41.4249C103.047 41.4249 102.322 41.1297 101.811 40.5482C101.297 39.9638 101.037 39.1308 101.037 38.0719C101.037 36.9797 101.298 36.1248 101.812 35.5301C102.322 34.9392 103.04 34.6393 103.945 34.6393C104.823 34.6393 105.522 34.9257 106.023 35.491C106.526 36.0593 106.781 36.9073 106.781 38.0122C106.781 39.1308 106.541 39.99 106.067 40.5648C105.597 41.1352 104.89 41.4249 103.966 41.4249ZM104.078 32.6334C102.324 32.6334 100.931 33.1311 99.939 34.1127C98.9466 35.0944 98.4431 36.453 98.4431 38.1509C98.4431 39.7644 98.9346 41.0609 99.9034 42.006C100.872 42.9514 102.191 43.4303 103.822 43.4303C105.521 43.4303 106.887 42.9256 107.88 41.9305C108.872 40.9364 109.375 39.5907 109.375 37.9324C109.375 36.2944 108.903 34.9875 107.972 34.0487C107.04 33.1095 105.73 32.6334 104.078 32.6334ZM94.5991 34.6654V32.8816H92.0976V43.1819H94.5991V37.9129C94.5991 37.017 94.8088 36.2809 95.2227 35.7249C95.6312 35.1756 96.1757 34.8973 96.8404 34.8973C97.0658 34.8973 97.3187 34.9332 97.5926 35.0044C97.8637 35.0752 98.0601 35.152 98.1759 35.2329L98.281 35.3067V32.864L98.2405 32.8471C98.0076 32.7512 97.678 32.7029 97.261 32.7029C96.6324 32.7029 96.0699 32.8985 95.588 33.2837C95.1651 33.6223 94.8594 34.0865 94.6257 34.6654H94.5991ZM87.618 32.6334C86.4704 32.6334 85.4468 32.8718 84.5761 33.3417C83.7036 33.8126 83.0289 34.485 82.5698 35.34C82.1128 36.1929 81.8807 37.1891 81.8807 38.3002C81.8807 39.2734 82.1057 40.1665 82.5504 40.9537C82.9953 41.7421 83.6251 42.3589 84.4222 42.7867C85.2183 43.214 86.1383 43.4306 87.157 43.4306C88.3458 43.4306 89.3608 43.2004 90.1745 42.7464L90.2074 42.7282V40.5083L90.1023 40.5827C89.7336 40.8428 89.3217 41.0504 88.8785 41.2C88.4363 41.3494 88.0333 41.4249 87.6798 41.4249C86.6983 41.4249 85.9103 41.1275 85.3384 40.541C84.7652 39.9537 84.4745 39.1291 84.4745 38.0914C84.4745 37.0472 84.7776 36.2013 85.3749 35.5772C85.9705 34.955 86.7599 34.6393 87.7211 34.6393C88.5433 34.6393 89.3445 34.909 90.1025 35.4416L90.2074 35.5154V33.1764L90.1735 33.158C89.8883 33.0033 89.4992 32.8756 89.0163 32.7787C88.5353 32.6821 88.0649 32.6334 87.618 32.6334ZM80.1579 32.8817H77.6565V43.1819H80.1579V32.8817ZM78.9328 28.4937C78.5211 28.4937 78.162 28.6294 77.867 28.8985C77.5707 29.1682 77.4205 29.5079 77.4205 29.9087C77.4205 30.3033 77.5689 30.6368 77.8624 30.8994C78.1539 31.1612 78.5141 31.2939 78.9329 31.2939C79.3516 31.2939 79.7131 31.1612 80.0081 30.8998C80.305 30.6368 80.4556 30.3034 80.4556 29.9087C80.4556 29.5219 80.3091 29.1857 80.0204 28.9093C79.7319 28.6335 79.3658 28.4937 78.9328 28.4937ZM72.6915 32.1217V43.1819H75.2443V28.809H71.7111L67.2201 39.4848L62.8618 28.809H59.1847V43.1818H61.5837V32.1206H61.6661L66.2683 43.1819H68.0787L72.6091 32.1217H72.6915Z" fill="#565555"/>
<path d="M38.7676 35.4058H27V24.0076H38.7676V35.4058Z" fill="#F1511B"/>
<path d="M51.7609 35.4044H39.9936V24.0061H51.7609V35.4044Z" fill="#80CC28"/>
<path d="M38.7672 47.9939H27V36.5957H38.7672V47.9939Z" fill="#00ADEF"/>
<path d="M51.7609 47.9939H39.9936V36.5957H51.7609V47.9939Z" fill="#FBBC09"/>
</g>
<defs>
<clipPath id="clip0_580_1782">
<rect width="116" height="24" fill="white" transform="translate(27 24)"/>
</clipPath>
</defs>
</svg>
