<svg width="170" height="72" viewBox="0 0 170 72" fill="none" xmlns="http://www.w3.org/2000/svg">
<g clip-path="url(#clip0_580_1760)">
<rect width="105" height="22" transform="translate(33 25)" fill="white"/>
<path d="M44.5608 25.0957C38.2003 25.0957 33.0512 29.974 33.0512 36.0001C33.0512 42.0261 38.2003 46.9044 44.5608 46.9044C50.9214 46.9044 56.0705 42.0261 56.0705 36.0001C56.0705 29.974 50.9214 25.0957 44.5608 25.0957ZM44.5608 44.3058C39.7147 44.3058 35.794 40.5914 35.794 36.0001C35.794 31.4087 39.7147 27.6943 44.5608 27.6943C49.407 27.6943 53.3277 31.4087 53.3277 36.0001C53.3277 40.5914 49.407 44.3058 44.5608 44.3058Z" fill="#2456A6"/>
<path d="M49.5586 33.1779C49.4912 33.0503 49.3398 32.9866 49.2052 32.9866H39.9335C39.7484 32.9866 39.5802 33.0982 39.5297 33.2735C39.4792 33.4489 39.5633 33.6243 39.7148 33.7199L44.1571 36.2866V40.9895C44.1571 41.1648 44.2917 41.3243 44.46 41.3721C44.4936 41.388 44.5273 41.388 44.561 41.388C44.7124 41.388 44.847 41.3083 44.9143 41.1967L49.5417 33.5924C49.6427 33.4489 49.6427 33.3054 49.5586 33.1779Z" fill="#2456A6"/>
<path d="M70.5744 39.0609C70.5744 40.129 70.1706 41.0377 69.3461 41.7869C68.5215 42.5362 67.5456 42.9188 66.4013 42.9188H65.8292C64.6682 42.9188 63.6754 42.5362 62.8509 41.7869C62.0263 41.0377 61.6225 40.113 61.6225 39.0609V32.4609C61.6225 31.3927 62.0263 30.5 62.8509 29.7507C63.6754 29.0014 64.6682 28.6348 65.8292 28.6348H66.4013C67.5624 28.6348 68.5215 29.0014 69.3461 29.7507C70.1706 30.5 70.5744 31.4087 70.5744 32.4609V39.0609ZM67.4446 32.8753C67.4446 31.9826 66.822 31.313 66.1489 31.313C65.4759 31.313 64.8028 31.9985 64.8028 32.8753V38.7101C64.8028 39.6029 65.459 40.2406 66.1489 40.2406C66.8725 40.2406 67.4446 39.6029 67.4446 38.7101V32.8753Z" fill="#2456A6"/>
<path d="M81.848 33.4172C81.848 34.4853 81.4441 35.378 80.6364 36.1273C79.8456 36.8766 78.8528 37.2432 77.7085 37.2432H76.4129C76.2446 37.2432 76.1773 37.307 76.1773 37.4664V42.0577C76.1773 42.4244 75.8239 42.7432 75.4033 42.7432H73.8215C73.4008 42.7432 73.098 42.4244 73.098 42.0577V29.4954C73.098 29.065 73.3335 28.8418 73.8215 28.8418H77.6917C78.8528 28.8418 79.8456 29.2244 80.6196 29.9737C81.4273 30.723 81.8311 31.6317 81.8311 32.6838V33.4172H81.848ZM78.7518 32.4925C78.7518 31.8867 78.1797 31.3925 77.5066 31.3925H76.497C76.3119 31.3925 76.2278 31.4563 76.2278 31.5838V34.5331C76.2278 34.6766 76.3119 34.7403 76.497 34.7403H77.5066C78.1797 34.7403 78.7518 34.2302 78.7518 33.6244V32.4925Z" fill="#2456A6"/>
<path d="M91.9963 42.0103C91.9963 42.377 91.6261 42.7277 91.2055 42.7277H84.9963C84.5756 42.7277 84.2054 42.377 84.2054 42.0103V29.5277C84.2054 29.1291 84.542 28.8103 84.9963 28.8103H91.0204C91.441 28.8103 91.8112 29.1291 91.8112 29.5277V30.7074C91.8112 31.0741 91.441 31.4248 91.0204 31.4248H87.554C87.3689 31.4248 87.2848 31.4886 87.2848 31.648V33.9436C87.2848 34.0871 87.3689 34.1509 87.554 34.1509H90.179C90.5997 34.1509 90.9699 34.4697 90.9699 34.8683V36.0161C90.9699 36.3828 90.5997 36.7335 90.179 36.7335H87.554C87.3689 36.7335 87.2848 36.8132 87.2848 36.9726V39.8103C87.2848 39.9697 87.3689 40.0494 87.554 40.0494H91.2055C91.6261 40.0494 91.9963 40.4002 91.9963 40.7668V42.0103Z" fill="#2456A6"/>
<path d="M103.639 42.0422C103.639 42.4089 103.303 42.7277 102.882 42.7277H101.452C101.115 42.7277 100.863 42.5364 100.678 42.1697L97.3967 35.4422V42.0422C97.3967 42.4089 97.0433 42.7277 96.6226 42.7277H95.125C94.7044 42.7277 94.4015 42.4089 94.4015 42.0422V29.5118C94.4015 29.1132 94.6875 28.8103 95.125 28.8103H96.6226C97.0097 28.8103 97.2789 29.0176 97.4808 29.4161L100.661 35.9045V29.5277C100.661 29.1291 101.031 28.8103 101.452 28.8103H102.882C103.303 28.8103 103.639 29.1291 103.639 29.5277V42.0422Z" fill="#2456A6"/>
<path d="M115.082 42.0101C115.082 42.3768 114.745 42.7275 114.308 42.7275H114.039C113.685 42.7275 113.399 42.4565 113.18 41.8985C113.18 41.9145 113.18 41.9304 113.164 41.9464C112.625 42.584 111.868 42.9188 110.875 42.9188H110.539C109.243 42.9188 108.183 42.5203 107.392 41.7391C106.601 40.958 106.197 40.0014 106.197 38.8695V32.6362C106.197 31.5362 106.618 30.5956 107.459 29.8145C108.318 29.0333 109.344 28.6348 110.539 28.6348H110.707C111.902 28.6348 112.928 29.0333 113.753 29.8145C114.594 30.5956 115.015 31.5362 115.015 32.6362V33.1942C115.015 33.5927 114.661 33.9116 114.241 33.9116H112.827C112.406 33.9116 112.036 33.529 112.036 33.1942V33.0029C112.036 32.0782 111.38 31.3449 110.656 31.3449C109.916 31.3449 109.277 32.0782 109.277 33.0029V38.5985C109.277 39.5869 109.798 40.2087 110.656 40.2087C111.565 40.2087 112.036 39.6666 112.036 38.5985V38.0406C112.036 37.8811 111.952 37.8174 111.784 37.8174H111.027C110.64 37.8174 110.236 37.4826 110.236 37.084V36.1753C110.236 35.8087 110.589 35.458 111.027 35.458H114.308C114.745 35.458 115.082 35.8406 115.082 36.1753V42.0101Z" fill="#2456A6"/>
<path d="M126.557 39.0609C126.557 40.129 126.153 41.0377 125.328 41.7869C124.504 42.5362 123.528 42.9188 122.384 42.9188H121.811C120.65 42.9188 119.658 42.5362 118.833 41.7869C118.009 41.0377 117.605 40.113 117.605 39.0609V32.4609C117.605 31.3927 118.009 30.5 118.833 29.7507C119.658 29.0014 120.65 28.6348 121.811 28.6348H122.384C123.545 28.6348 124.504 29.0014 125.328 29.7507C126.153 30.5 126.557 31.4087 126.557 32.4609V39.0609ZM123.41 32.8753C123.41 31.9826 122.787 31.313 122.114 31.313C121.441 31.313 120.768 31.9985 120.768 32.8753V38.7101C120.768 39.6029 121.424 40.2406 122.114 40.2406C122.838 40.2406 123.41 39.6029 123.41 38.7101V32.8753Z" fill="#2456A6"/>
<path d="M135.156 42.0902C135.072 42.5206 134.802 42.7279 134.382 42.7279H132.194C131.807 42.7279 131.555 42.5206 131.454 42.0902L128.61 29.6395C128.593 29.5916 128.593 29.5119 128.593 29.4641C128.593 29.0337 128.812 28.8264 129.233 28.8264H130.764C131.185 28.8264 131.42 29.0177 131.521 29.3844L133.322 37.7061L135.088 29.3844C135.173 29.0177 135.442 28.8264 135.862 28.8264H137.377C137.798 28.8264 138 29.0177 138 29.4003C138 29.4641 137.983 29.5598 137.966 29.6395L135.156 42.0902Z" fill="#2456A6"/>
</g>
<defs>
<clipPath id="clip0_580_1760">
<rect width="105" height="22" fill="white" transform="translate(33 25)"/>
</clipPath>
</defs>
</svg>
