<svg width="170" height="72" viewBox="0 0 170 72" fill="none" xmlns="http://www.w3.org/2000/svg">
<g clip-path="url(#clip0_580_1813)">
<path d="M78.5882 23.3176L72.3665 17.2103C72.9193 16.5997 73.4728 15.9888 74.0946 15.4458L80.3157 21.5534L78.5882 23.3176ZM74.5784 15.0386C75.3387 14.3599 76.1681 13.8168 77.0669 13.2741L82.942 19.0427L80.7994 21.1462L74.5784 15.0386ZM83.357 18.6352L77.6197 13.0032C78.3797 12.5957 79.2097 12.2563 80.0388 11.9848L85.0845 16.9388L83.357 18.6352ZM88.1261 19.0427L94.0005 13.2741C94.9 13.8168 95.7287 14.3599 96.4893 15.0386L90.2683 21.1462L88.1261 19.0427ZM92.4799 31.8678L98.7009 37.9758C98.3563 38.3836 97.7331 38.9945 97.3881 39.4013C97.1803 39.6054 97.1119 39.7407 97.0425 39.7407L90.8221 33.6333L92.4799 31.8678ZM90.3377 33.9727L96.5587 40.08C95.7981 40.7593 94.969 41.3015 94.0702 41.8439L88.1955 36.076L90.3377 33.9727ZM87.7114 36.5509L93.448 42.1833C92.688 42.5904 91.2361 43.1335 91.028 43.2019L85.9829 38.2476L87.7114 36.5509ZM85.5679 38.6542L90.4074 43.4047C87.2273 44.3553 83.8407 44.3553 80.7304 43.4047L85.5679 38.6542ZM82.942 36.076L77.0669 41.8439C76.1684 41.3015 75.3387 40.7593 74.5784 40.08L80.7994 33.9727L82.942 36.076ZM88.5401 23.7248L90.2683 22.0283L91.9961 23.7248L90.2683 25.4215L88.5401 23.7248ZM82.5273 31.3929L80.7994 33.0896L79.0713 31.3929L80.7994 29.6961L82.5273 31.3929ZM78.795 27.3898C78.6569 27.5254 78.6569 27.661 78.795 27.7966L80.3153 29.2903L78.5878 30.987L75.1315 27.5254L78.5878 24.1322L80.3153 25.829L78.795 27.3898ZM79.0022 23.7248L80.7994 21.9605L82.5273 23.657L80.7994 25.3537L79.0022 23.7248ZM81.2141 21.6212L83.3563 19.5173L85.0842 21.214L82.942 23.3179L81.2141 21.6212ZM88.1261 23.3176L85.9836 21.2137L87.7117 19.517L89.8539 21.6209L88.1261 23.3176ZM89.8539 33.5643L87.7117 35.6691L85.9836 33.9724L88.1261 31.8675L89.8539 33.5643ZM82.942 31.8678L85.0842 33.9727L83.3563 35.7369L81.2141 33.6333L82.942 31.8678ZM82.7348 27.7966C82.8732 27.661 82.8732 27.5254 82.7348 27.3898L81.2144 25.8965L82.9423 24.1997L85.0845 26.3036L83.9795 27.3898C83.8407 27.5254 83.8407 27.661 83.9795 27.7966L85.0845 28.8828L82.9423 30.987L81.2144 29.2903L82.7348 27.7966ZM84.6701 27.5932L85.5679 26.7111L86.467 27.5932L85.5679 28.4747L84.6701 27.5932ZM85.5679 29.2903L87.7114 31.3926L85.5679 33.4968L83.426 31.3926L85.5679 29.2903ZM88.3333 27.3898C88.1952 27.5254 88.1952 27.661 88.3333 27.7966L89.8536 29.2903L88.1258 30.987L85.9833 28.8828L87.0892 27.7966C87.2273 27.661 87.2273 27.5254 87.0892 27.3898L85.9833 26.3036L88.1258 24.1997L89.9233 25.8965L88.3333 27.3898ZM83.4257 23.7248L85.5676 21.6212L87.7111 23.7248L85.5676 25.8287L83.4257 23.7248ZM89.0239 27.5932L90.3377 26.3039L91.6518 27.5932L90.3377 28.8828L89.0239 27.5932ZM82.1126 27.5932L80.7994 28.8828L79.486 27.5932L80.7994 26.3039L82.1126 27.5932ZM87.2957 36.076L85.5679 37.7727L83.8407 36.076L85.5679 34.3792L87.2957 36.076ZM92.0658 31.3929L90.3377 33.0896L88.6099 31.3929L90.3377 29.6961L92.0658 31.3929ZM92.2727 27.7966C92.4118 27.661 92.4118 27.5254 92.2727 27.3898L90.7524 25.8965L92.4802 24.1997L95.9365 27.5929L92.4802 30.9867L90.7524 29.2899L92.2727 27.7966ZM83.7717 19.0427L85.4998 17.3462L87.2273 19.0427L85.4998 20.7394L83.7717 19.0427ZM92.8959 31.3929L96.5587 27.7966C96.6968 27.661 96.6968 27.5254 96.5587 27.3898L92.8959 23.7932L99.0469 17.7528C103.47 23.5892 103.47 31.6651 99.0469 37.5005L92.8959 31.3929ZM74.4403 27.3898C74.3021 27.5254 74.3021 27.661 74.4403 27.7966L78.1038 31.3929L71.9524 37.4333C67.5283 31.5966 67.5283 23.5213 71.9524 17.6849L78.1038 23.7248L74.4403 27.3898ZM80.3851 33.5643L74.1637 39.6719C73.5418 39.1298 72.9893 38.5189 72.4362 37.908L78.6572 31.8L80.3851 33.5643ZM83.357 36.5509L85.0845 38.248L80.0388 43.2023C79.2097 42.9301 78.3797 42.5907 77.6197 42.1836L83.357 36.5509ZM92.4799 23.3176L90.7521 21.6209L96.9731 15.5132C97.5959 16.0563 98.1488 16.6672 98.7009 17.2775L92.4799 23.3176ZM85.9833 16.9384L91.0283 11.9845C91.8583 12.256 92.6884 12.595 93.4484 13.0028L87.7117 18.6352L85.9833 16.9384ZM80.6613 11.7129C83.8407 10.7633 87.2273 10.7633 90.3377 11.7129L85.4998 16.4632L80.6613 11.7129Z" fill="#21A6AA"/>
<path d="M42.1613 54.6262H42.0229C40.295 54.1512 39.535 53.8106 39.535 52.522C39.535 51.4358 40.2253 50.7581 41.401 50.7581C41.401 50.7581 43.8197 50.7581 44.5113 52.7257V52.7932H45.2717V49.875H44.5113L44.2351 50.9618C43.5432 50.2831 42.5069 49.875 41.5394 49.875C39.535 49.875 38.1528 51.0965 38.1528 52.8616C38.1528 54.8296 39.8797 55.4405 41.7469 55.9155C43.6132 56.3904 44.4423 56.7291 44.4423 58.0872C44.4423 59.3089 43.4744 59.8511 42.5073 59.8511C41.0553 59.9205 39.6735 59.1721 38.9131 57.9506V57.8831H38.1528V60.8688H38.9131L39.2578 59.5798C40.0878 60.3932 41.2632 60.8688 42.4382 60.8688C44.4426 60.8688 45.8942 59.5124 45.8942 57.6791C45.8241 55.5755 44.1657 55.169 42.1613 54.6262Z" fill="#303337"/>
<path d="M47.4146 52.1152H48.1749V51.9115C48.3828 50.6897 48.4521 50.6897 49.3506 50.6897H51.2853V59.9202H50.249V60.8014H53.9119V59.9202H52.8753V50.6897H54.7416C55.64 50.6897 55.7098 50.6897 55.9176 51.8427V52.0471H56.6776V49.7407H47.3462V52.1152H47.4146Z" fill="#303337"/>
<path d="M64.7625 52.1152H65.5228V51.9115C65.7303 50.6897 65.7997 50.6897 66.6985 50.6897H68.6342V59.9202H67.5982V60.8014H71.2604V59.9202H70.2236V50.6897H72.0908C72.9889 50.6897 73.0586 50.6897 73.2655 51.8427V52.0471H74.0255V49.7407H64.6941V52.1152H64.7625Z" fill="#303337"/>
<path d="M58.8878 50.6902H59.924V59.9208H58.8878V60.8019H62.551V59.9208H61.5141V50.6902H62.551V49.8081H58.8878V50.6902Z" fill="#303337"/>
<path d="M93.9321 50.6902H95.0371V55.1699H89.7846V50.6902H90.7521V49.8081H87.0879V50.6902H88.1945V59.9208H87.1576V60.8019H90.8205V59.9208H89.7846V56.0523H95.0371V59.9208H93.9321V60.8019H97.595V59.9208H96.6271V50.6902H97.595V49.8081H93.9321V50.6902Z" fill="#303337"/>
<path d="M116.741 50.6902H117.779V59.9208H116.741V60.8019H120.404V59.9208H119.368V50.6902H120.404V49.8081H116.741V50.6902Z" fill="#303337"/>
<path d="M132.846 50.6902V49.8081H129.183V50.6902H130.08L127.662 54.0156L125.381 50.6902H126.28V49.8081H122.616V50.6902H123.653L126.833 55.3736L123.653 59.9208H122.547V60.8019H126.211V59.9208H125.036L127.455 56.3239L129.943 59.9208H128.976V60.8019H132.639V59.9208H131.672L128.353 55.0327L131.395 50.6902H132.846Z" fill="#303337"/>
<path d="M106.234 50.6898H107.341V59.9203H106.234V60.8015H109.898V59.9203H108.93V56.0519H110.659C111.28 56.0519 111.35 56.1193 111.557 56.729V56.7987V56.8662H112.318V54.0833H111.557V54.1517L111.488 54.2864C111.28 54.8298 111.211 55.0325 110.59 55.0325H108.862V50.5548H112.663C113.423 50.5548 113.561 50.7589 113.976 51.7766V51.8434H114.806V49.6042H106.097L106.234 50.6898Z" fill="#303337"/>
<path d="M83.771 56.458C83.425 58.5623 82.2506 59.7837 80.4531 59.7837C78.3103 59.7837 76.9968 58.0198 76.9968 55.1694C76.9968 52.4549 78.3102 50.6901 80.315 50.6901C82.2506 50.6901 83.2869 51.9119 83.771 52.9299V52.9974H84.5309V49.7411H83.7009L83.4247 50.8941C82.595 50.0795 81.5584 49.6724 80.3827 49.7411C77.4802 49.7411 75.3377 52.1156 75.3377 55.2366C75.3377 56.8665 75.8215 58.2242 76.7899 59.2419C77.6871 60.1922 79.0005 60.8018 80.3146 60.7346C82.8712 60.7346 84.4612 59.1725 84.8069 56.3906V56.2559H83.8387L83.771 56.458Z" fill="#303337"/>
</g>
<defs>
<clipPath id="clip0_580_1813">
<rect width="95" height="50" fill="white" transform="translate(38 11)"/>
</clipPath>
</defs>
</svg>
